<?xml version="1.0" encoding="utf-8"?>
<!-- Generator: Adobe Illustrator 15.1.0, SVG Export Plug-In . SVG Version: 6.00 Build 0)  -->
<!DOCTYPE svg PUBLIC "-//W3C//DTD SVG 1.1//EN" "http://www.w3.org/Graphics/SVG/1.1/DTD/svg11.dtd">
<svg version="1.1" id="Layer_1" xmlns="http://www.w3.org/2000/svg" xmlns:xlink="http://www.w3.org/1999/xlink" x="0px" y="0px"
	 width="24px" height="24px" viewBox="0 0 24 24" enable-background="new 0 0 24 24" xml:space="preserve">
<g>
	<path fill="#444444" d="M18,6c0.857,0,1,0.141,1,1v12c0,0.859-0.143,1-1,1H6c-0.858,0-1-0.141-1-1V7c0-0.859,0.142-1,1-1H18 M18,5
		H6C4.598,5,4,5.598,4,7v12c0,1.402,0.598,2,2,2h12c1.402,0,2-0.598,2-2V7C20,5.598,19.402,5,18,5L18,5z"/>
</g>
<g>
	<path fill="#444444" d="M19.344,9.938H5c-0.276,0-0.5-0.224-0.5-0.5s0.224-0.5,0.5-0.5h14.344c0.276,0,0.5,0.224,0.5,0.5
		S19.62,9.938,19.344,9.938z"/>
</g>
<rect x="8" y="3" fill="#444444" width="1" height="5"/>
<rect x="15" y="3" fill="#444444" width="1" height="5"/>
</svg>
