<?xml version="1.0" encoding="utf-8"?>
<!-- Generator: Adobe Illustrator 15.1.0, SVG Export Plug-In . SVG Version: 6.00 Build 0)  -->
<!DOCTYPE svg PUBLIC "-//W3C//DTD SVG 1.0//EN" "http://www.w3.org/TR/2001/REC-SVG-20010904/DTD/svg10.dtd">
<svg version="1.0" id="Layer_1" xmlns="http://www.w3.org/2000/svg" xmlns:xlink="http://www.w3.org/1999/xlink" x="0px" y="0px"
	 width="800px" height="800px" viewBox="0 0 800 800" enable-background="new 0 0 800 800" xml:space="preserve">
<g enable-background="new    ">
	<path fill="#32617C" d="M209.418,385.364h-12.025v-1.968h4.873v-2.521h2.472v2.521h4.681V385.364z M203.49,394.773
		c-2.928,0-4.968-1.704-4.968-4.2c0-2.521,2.04-4.2,4.968-4.2c2.952,0,4.992,1.68,4.992,4.2
		C208.482,393.069,206.442,394.773,203.49,394.773z M203.49,392.829c1.584,0,2.664-0.84,2.664-2.256c0-1.393-1.08-2.28-2.664-2.28
		c-1.56,0-2.64,0.888-2.64,2.28C200.85,391.989,201.93,392.829,203.49,392.829z M215.803,400.174v2.017h-14.617v-6.121h2.496v4.104
		H215.803z M212.827,393.117h-3.313v-1.992h3.313v-2.592h-3.313v-2.017h3.313v-5.593h2.472v16.538h-2.472V393.117z"/>
	<path fill="#32617C" d="M226.026,386.541c0,3.912,1.368,7.465,4.512,9.097l-1.44,1.896c-2.064-1.129-3.408-3.097-4.2-5.497
		c-0.744,2.761-2.136,4.969-4.272,6.24l-1.512-1.848c3.144-1.824,4.512-5.593,4.512-9.889v-1.2h-3.912v-2.04h9.937v2.04h-3.625
		V386.541z M238.027,380.9v21.698h-2.352v-11.09h-2.376v10.081h-2.328v-20.281h2.328v8.16h2.376V380.9H238.027z"/>
	<path fill="#32617C" d="M258.57,392.661c-2.4-0.864-4.128-2.568-5.064-4.656c-0.96,2.328-2.784,4.225-5.353,5.112l-1.272-1.944
		c3.36-1.151,5.328-4.032,5.328-6.937v-0.144h-4.584v-2.017h11.593v2.017h-4.512v0.12c0,2.688,1.848,5.376,5.088,6.504
		L258.57,392.661z M262.386,393.718h2.472v8.616h-14.089v-8.616h2.448v2.352h9.169V393.718z M262.386,398.014h-9.169v2.328h9.169
		V398.014z M264.858,380.924v11.833h-2.496v-4.728h-3.816v-2.041h3.816v-5.064H264.858z"/>
	<path fill="#32617C" d="M288.619,390.717v2.017h-19.658v-2.017h14.209c0.552-2.712,0.576-4.752,0.576-6.576h-12.313v-1.992h14.761
		v1.776c0,1.848,0,3.984-0.528,6.792H288.619z M273.953,400.174h12.865v1.992h-15.313v-7.272h2.448V400.174z"/>
	<path fill="#32617C" d="M309.186,386.301h-12.721v-2.04h5.136v-3.024h2.473v3.024h5.112V386.301z M307.961,392.877
		c0,2.929-2.184,5.041-5.137,5.041c-2.928,0-5.112-2.112-5.112-5.041c0-2.952,2.184-5.064,5.112-5.064
		C305.777,387.813,307.961,389.925,307.961,392.877z M305.681,392.877c0-1.8-1.224-3-2.856-3c-1.608,0-2.832,1.2-2.832,3
		c0,1.801,1.224,2.977,2.832,2.977C304.457,395.854,305.681,394.678,305.681,392.877z M314.466,380.924v21.675h-2.496v-10.825
		h-3.216v-2.017h3.216v-8.833H314.466z"/>
	<path fill="#32617C" d="M338.13,391.461v1.969h-19.609v-1.969h4.656v-2.88c-1.632-0.696-2.568-1.8-2.568-3.217
		c0-2.544,2.977-4.08,7.729-4.08c4.728,0,7.729,1.536,7.729,4.08c0,1.417-0.96,2.521-2.616,3.24v2.856H338.13z M335.754,398.71
		c0,2.496-2.784,3.889-7.465,3.889c-4.656,0-7.464-1.393-7.464-3.889c0-2.473,2.808-3.889,7.464-3.889
		C332.97,394.821,335.754,396.237,335.754,398.71z M323.153,385.364c0,1.393,1.944,2.185,5.185,2.185c3.216,0,5.16-0.792,5.16-2.185
		c0-1.392-1.944-2.16-5.16-2.16C325.097,383.204,323.153,383.973,323.153,385.364z M333.258,398.71c0-1.296-1.8-1.992-4.969-1.992
		c-3.168,0-4.944,0.696-4.944,1.992c0,1.32,1.776,1.992,4.944,1.992C331.458,400.702,333.258,400.03,333.258,398.71z
		 M325.649,391.461h5.329v-2.208c-0.792,0.12-1.68,0.192-2.64,0.192c-0.96,0-1.896-0.072-2.688-0.192V391.461z"/>
	<path fill="#32617C" d="M352.505,390.141c0,4.705-2.352,7.657-5.592,7.657c-3.216,0-5.568-2.952-5.568-7.657
		c0-4.656,2.352-7.632,5.568-7.632C350.153,382.509,352.505,385.484,352.505,390.141z M343.721,390.141
		c0,3.409,1.32,5.449,3.192,5.449c1.896,0,3.216-2.04,3.216-5.449c0-3.359-1.32-5.4-3.216-5.4
		C345.041,384.74,343.721,386.781,343.721,390.141z M358.458,380.9v21.746h-2.496V380.9H358.458z"/>
	<path fill="#32617C" d="M376.48,395.926c1.92-0.072,3.841-0.192,5.641-0.408l0.192,1.824c-4.68,0.744-9.721,0.816-13.801,0.792
		l-0.312-2.04c1.8,0,3.768-0.024,5.808-0.072v-4.008h-4.296v-9.121h11.089v2.016h-8.617v5.113h8.712v1.992h-4.417V395.926z
		 M385.938,380.876v21.771h-2.496v-21.771H385.938z"/>
	<path fill="#32617C" d="M398.177,387.188c0,3.601,2.232,7.345,5.616,8.785l-1.367,1.944c-2.521-1.104-4.465-3.456-5.473-6.265
		c-0.96,3.024-2.904,5.593-5.448,6.816l-1.417-1.968c3.36-1.561,5.593-5.593,5.593-9.313v-2.063h-4.825v-2.041h12.145v2.041h-4.824
		V387.188z M408.018,380.924v21.675h-2.496v-21.675H408.018z"/>
	<path fill="#32617C" d="M423.617,392.157c-3.266,0-5.689-2.112-5.689-5.04c0-2.952,2.424-5.041,5.689-5.041
		c3.264,0,5.688,2.089,5.688,5.041C429.305,390.045,426.881,392.157,423.617,392.157z M422.152,400.006
		c1.248-0.072,2.616-0.264,3.912-0.696l0.408,1.969c-1.968,0.672-3.84,0.768-5.592,0.768h-1.129v-8.16h2.4V400.006z
		 M423.617,390.117c1.871,0,3.287-1.225,3.287-3c0-1.801-1.416-3.024-3.287-3.024c-1.873,0-3.289,1.224-3.289,3.024
		C420.328,388.893,421.744,390.117,423.617,390.117z M432.329,394.006h4.225v1.8h-10.873v-1.8h4.249v-1.776h2.399V394.006z
		 M435.209,399.55c0,1.872-1.703,3.072-4.08,3.072c-2.4,0-4.104-1.2-4.104-3.072s1.703-3.072,4.104-3.072
		C433.506,396.478,435.209,397.678,435.209,399.55z M433.025,399.55c0-0.864-0.816-1.344-1.896-1.344
		c-1.104,0-1.92,0.479-1.92,1.344c0,0.84,0.816,1.344,1.92,1.344C432.209,400.894,433.025,400.39,433.025,399.55z M437.658,385.629
		v2.04h-3.072v3.984h-2.473v-10.729h2.473v4.705H437.658z"/>
	<path fill="#32617C" d="M459.401,391.749v1.992H439.72v-1.992H459.401z M444.592,400.126h12.674v1.992h-15.146v-6.385h2.473
		V400.126z M457.145,389.157h-14.881v-7.465h2.473v5.448h12.408V389.157z"/>
	<path fill="#32617C" d="M475.672,395.109c0.696-0.072,1.393-0.144,2.017-0.24l0.168,1.801c-3.384,0.672-7.849,0.768-10.585,0.768
		l-0.288-2.04c0.601,0,1.272,0,1.992,0v-9.865h-1.56v-1.992h9.864v1.992h-1.608V395.109z M471.232,395.35
		c0.72-0.024,1.439-0.048,2.184-0.096v-9.722h-2.184V395.35z M479.248,381.404h2.328v20.113h-2.328v-10.32h-2.567v-2.185h2.567
		V381.404z M485.873,380.924v21.675h-2.376v-21.675H485.873z"/>
	<path fill="#32617C" d="M501.185,390.141c0,4.705-2.353,7.657-5.593,7.657c-3.216,0-5.568-2.952-5.568-7.657
		c0-4.656,2.353-7.632,5.568-7.632C498.832,382.509,501.185,385.484,501.185,390.141z M492.4,390.141
		c0,3.409,1.32,5.449,3.191,5.449c1.896,0,3.217-2.04,3.217-5.449c0-3.359-1.32-5.4-3.217-5.4
		C493.721,384.74,492.4,386.781,492.4,390.141z M507.137,380.9v21.746h-2.496V380.9H507.137z"/>
	<path fill="#32617C" d="M519.376,387.188c0,3.601,2.232,7.345,5.616,8.785l-1.367,1.944c-2.521-1.104-4.465-3.456-5.473-6.265
		c-0.961,3.024-2.904,5.593-5.449,6.816l-1.416-1.968c3.36-1.561,5.593-5.593,5.593-9.313v-2.063h-4.825v-2.041H524.2v2.041h-4.824
		V387.188z M529.217,380.924v21.675h-2.496v-21.675H529.217z"/>
	<path fill="#32617C" d="M550.768,386.949c0,2.976-2.424,5.04-5.736,5.04c-3.312,0-5.76-2.064-5.76-5.04
		c0-2.977,2.448-5.041,5.76-5.041C548.344,381.908,550.768,383.973,550.768,386.949z M541.695,386.949c0,1.824,1.368,3,3.336,3
		c1.945,0,3.337-1.176,3.337-3c0-1.801-1.392-3.001-3.337-3.001C543.063,383.948,541.695,385.148,541.695,386.949z M545.008,393.573
		v2.4h9.265v-2.4h2.448v8.761H542.56v-8.761H545.008z M545.008,400.342h9.265v-2.448h-9.265V400.342z M556.721,380.924v11.642
		h-2.473v-11.642H556.721z"/>
	<path fill="#32617C" d="M564.664,395.014c3.072-0.024,6.313-0.288,9.721-0.984l0.264,2.064c-3.721,0.768-7.225,1.032-10.585,1.032
		h-1.849v-14.09h2.449V395.014z M578.85,380.924v21.675h-2.473v-21.675H578.85z"/>
	<path fill="#32617C" d="M586.359,395.229c3.504-0.024,6.145-0.168,9.168-0.696l0.265,2.04c-3.288,0.601-6.216,0.721-10.129,0.721
		h-1.776v-14.329h10.081v2.016h-7.608V395.229z M603.185,391.293h-3.384v11.329h-2.473V380.9h2.473v8.353h3.384V391.293z"/>
</g>
<g>
	<rect x="344.648" y="682.354" fill="#006171" width="110.088" height="19.178"/>
	<g>
		<path fill="#754C28" d="M475.388,707.84c0,3.602-2.941,6.543-6.543,6.543H330.536c-3.596,0-6.538-2.941-6.538-6.543v-0.166
			c0-3.601,2.941-6.54,6.538-6.54h138.309c3.602,0,6.543,2.939,6.543,6.54V707.84z"/>
	</g>
	<g>
		<g>
			<g>
				<polygon fill="#006171" points="284.02,497.905 291.859,494.995 310.104,543.981 302.243,546.899 				"/>
				<polygon fill="#F58426" points="288.713,526.648 307.107,519.815 325.335,568.813 306.953,575.644 				"/>
				<path fill="#F58426" d="M288.225,497.239c10.038-3.733,15.151-14.889,11.417-24.925c-3.201-8.604-11.893-13.559-20.646-12.426
					l3.627,9.739c3.437,0.421,6.521,2.648,7.814,6.111c1.838,4.955-0.685,10.452-5.64,12.294c-4.958,1.838-10.467-0.68-12.29-5.623
					c-1.297-3.461-0.409-7.166,1.909-9.736l-3.627-9.736c-7.354,4.859-10.691,14.277-7.49,22.888
					C267.024,495.866,278.191,500.974,288.225,497.239z"/>
			</g>
			<path fill="#006171" d="M300.324,573.512c0-9.941,8.07-18.017,18.01-18.017c9.943,0,18.011,8.073,18.011,18.017
				c0,9.955-8.067,18.016-18.011,18.016C308.395,591.527,300.324,583.467,300.324,573.512z"/>
		</g>
		<g>
			<g>
				<polygon fill="#006171" points="515.373,497.905 507.543,494.995 489.296,543.981 497.166,546.899 				"/>
				<polygon fill="#F58426" points="510.687,526.648 492.292,519.815 474.071,568.813 492.439,575.644 				"/>
				<path fill="#F58426" d="M511.175,497.239c-10.041-3.733-15.15-14.889-11.417-24.925c3.201-8.604,11.878-13.559,20.637-12.426
					l-3.62,9.739c-3.439,0.421-6.523,2.648-7.809,6.111c-1.842,4.955,0.679,10.452,5.624,12.294
					c4.95,1.838,10.457-0.68,12.288-5.623c1.294-3.461,0.406-7.166-1.914-9.736l3.617-9.736c7.363,4.859,10.703,14.277,7.504,22.888
					C532.363,495.866,521.206,500.974,511.175,497.239z"/>
			</g>
			<path fill="#006171" d="M499.082,573.512c0-9.941-8.077-18.017-18.012-18.017c-9.95,0-18.018,8.073-18.018,18.017
				c0,9.955,8.065,18.016,18.018,18.016C491.005,591.527,499.082,583.467,499.082,573.512z"/>
		</g>
	</g>
	<rect x="342.214" y="529.712" fill="#006171" width="114.95" height="17.316"/>
	<g>
		<path fill="#F8D50D" d="M399.438,433.239c-17.64,0-32.074,14.709-32.074,32.687v17.014c0,17.98,14.435,32.688,32.074,32.688
			c17.641,0,32.071-14.708,32.071-32.688v-17.014C431.512,447.948,417.079,433.239,399.438,433.239L399.438,433.239z"/>
	</g>
	<g>
		<g>
			<path fill="#FFE97B" d="M373.785,460.626c-0.198,0-0.399-0.027-0.599-0.084c-1.168-0.33-1.849-1.544-1.519-2.713
				c3.691-13.075,15.584-22.208,28.919-22.208c1.214,0,2.199,0.984,2.199,2.198c0,1.215-0.984,2.199-2.199,2.199
				c-11.376,0-21.528,7.814-24.688,19.006C375.626,459.992,374.744,460.626,373.785,460.626z"/>
		</g>
	</g>
	<rect x="363.94" y="469.553" fill="#006171" width="71.505" height="18.161"/>
	<g>
		<path fill="#F58426" d="M489.925,507.854c0,14.047-14.708,25.537-32.687,25.537H342.145c-17.976,0-32.683-11.49-32.683-25.537
			c0-14.043,14.708-25.538,32.683-25.538h115.094C475.217,482.316,489.925,493.812,489.925,507.854z"/>
	</g>
	<g>
		<path fill="#F58426" d="M474.888,670.313c0,10.783-8.824,19.608-19.618,19.608H344.123c-10.788,0-19.613-8.825-19.613-19.608
			V560.375c0-10.783,8.827-19.61,19.613-19.61h111.15c10.791,0,19.615,8.827,19.615,19.61V670.313z"/>
	</g>
	<g>
		<g>
			<polygon fill="#FFD36C" points="455.734,507.367 413.598,507.367 410.335,497.15 455.734,497.15 			"/>
			<polygon fill="#FFD36C" points="385.781,507.367 343.649,507.367 343.649,497.15 389.046,497.15 			"/>
		</g>
		<g>
			<rect x="372.063" y="515.732" fill="#FFD36C" width="55.262" height="2.944"/>
			<circle fill="#FFD36C" cx="426.313" cy="517.205" r="4.607"/>
			<path fill="#FFD36C" d="M377.675,517.205c0,2.545-2.059,4.61-4.607,4.61c-2.532,0-4.605-2.065-4.605-4.61
				c0-2.541,2.073-4.609,4.605-4.609C375.616,512.596,377.675,514.664,377.675,517.205z"/>
		</g>
	</g>
	<g>
		<g>
			<g>
				<path fill="#C9DB44" d="M384.02,579.188c0,1.802-1.471,3.272-3.268,3.272h-11.376c-1.799,0-3.275-1.471-3.275-3.272v-11.378
					c0-1.799,1.473-3.271,3.275-3.271h11.376c1.797,0,3.268,1.472,3.268,3.271V579.188z"/>
			</g>
			<g>
				<g>
					<path fill="#C9DB44" d="M369.376,607.093c-1.799,0-3.275-1.473-3.275-3.268v-11.378c0-1.8,1.473-3.271,3.275-3.271h11.376
						c1.797,0,3.268,1.471,3.268,3.271v11.378c0,1.795-1.471,3.268-3.268,3.268H369.376z"/>
				</g>
				<g>
					<path fill="#C9DB44" d="M369.376,631.726c-1.799,0-3.275-1.474-3.275-3.272V617.08c0-1.795,1.473-3.269,3.275-3.269h11.376
						c1.797,0,3.268,1.474,3.268,3.269v11.373c0,1.799-1.471,3.272-3.268,3.272H369.376z"/>
				</g>
			</g>
		</g>
		<g>
			<g>
				<path fill="#C9DB44" d="M433.286,579.188c0,1.802-1.465,3.272-3.265,3.272h-11.381c-1.8,0-3.271-1.471-3.271-3.272v-11.378
					c0-1.799,1.471-3.271,3.271-3.271h11.381c1.8,0,3.265,1.472,3.265,3.271V579.188z"/>
			</g>
			<g>
				<path fill="#C9DB44" d="M418.641,607.093c-1.8,0-3.271-1.473-3.271-3.268v-11.378c0-1.8,1.471-3.271,3.271-3.271h11.381
					c1.8,0,3.265,1.471,3.265,3.271v11.378c0,1.795-1.465,3.268-3.265,3.268H418.641z"/>
			</g>
			<g>
				<path fill="#C9DB44" d="M418.641,631.726c-1.8,0-3.271-1.474-3.271-3.272V617.08c0-1.795,1.471-3.269,3.271-3.269h11.381
					c1.8,0,3.265,1.474,3.265,3.269v11.373c0,1.799-1.465,3.272-3.265,3.272H418.641z"/>
			</g>
		</g>
		<g>
			<g>
				<path fill="#C9DB44" d="M408.647,579.188c0,1.802-1.471,3.272-3.266,3.272h-11.381c-1.799,0-3.265-1.471-3.265-3.272v-11.378
					c0-1.799,1.466-3.271,3.265-3.271h11.381c1.795,0,3.266,1.472,3.266,3.271V579.188z"/>
			</g>
			<g>
				<path fill="#C9DB44" d="M394.001,607.093c-1.799,0-3.265-1.473-3.265-3.268v-11.378c0-1.8,1.466-3.271,3.265-3.271h11.381
					c1.795,0,3.266,1.471,3.266,3.271v11.378c0,1.795-1.471,3.268-3.266,3.268H394.001z"/>
			</g>
			<g>
				<path fill="#C9DB44" d="M394.001,631.726c-1.799,0-3.265-1.474-3.265-3.272V617.08c0-1.795,1.466-3.269,3.265-3.269h11.381
					c1.795,0,3.266,1.474,3.266,3.269v11.373c0,1.799-1.471,3.272-3.266,3.272H394.001z"/>
			</g>
		</g>
	</g>
	<g>
		<path fill="#754C28" d="M359.68,654.777c-7.333-0.015-13.266-5.957-13.28-13.282l0,0v-75.794
			c0.015-7.327,5.953-13.268,13.28-13.285l0,0h80.02c7.326,0.018,13.266,5.953,13.275,13.285l0,0v75.794
			c-0.01,7.33-5.949,13.268-13.275,13.282l0,0H359.68L359.68,654.777z M353.35,565.701v75.794c0.007,3.465,2.875,6.328,6.333,6.34
			l0,0h80.02c3.456-0.012,6.322-2.88,6.331-6.34l0,0v-75.794c-0.009-3.463-2.875-6.328-6.331-6.337l0,0h-80.02
			C356.22,559.373,353.357,562.234,353.35,565.701L353.35,565.701z"/>
	</g>
	<rect x="324.507" y="658.028" fill="#006171" width="150.38" height="10.348"/>
	<g>
		<path fill="#006171" d="M422.641,642.391c0,1.796-1.471,3.267-3.27,3.267h-39.364c-1.792,0-3.268-1.471-3.268-3.267v-2.426
			c0-1.799,1.473-3.27,3.268-3.27h39.364c1.799,0,3.27,1.471,3.27,3.27V642.391z"/>
	</g>
	<g>
		<circle fill="#EE4036" cx="459.532" cy="673.626" r="3.472"/>
		<circle fill="#EE4036" cx="447.562" cy="673.627" r="3.475"/>
		<path fill="#EE4036" d="M439.079,673.627c0,1.915-1.565,3.475-3.483,3.475c-1.914,0-3.475-1.56-3.475-3.475
			c0-1.914,1.561-3.471,3.475-3.471C437.514,670.159,439.079,671.713,439.079,673.627z"/>
		<circle fill="#EE4036" cx="423.629" cy="673.626" r="3.47"/>
		<circle fill="#EE4036" cx="411.66" cy="673.626" r="3.472"/>
		<circle fill="#EE4036" cx="399.687" cy="673.626" r="3.472"/>
		<path fill="#EE4036" d="M391.205,673.627c0,1.915-1.563,3.475-3.486,3.475c-1.909,0-3.468-1.56-3.468-3.475
			c0-1.914,1.559-3.471,3.468-3.471C389.641,670.159,391.205,671.713,391.205,673.627z"/>
		<circle fill="#EE4036" cx="375.757" cy="673.626" r="3.47"/>
		<path fill="#EE4036" d="M367.265,673.627c0,1.915-1.556,3.475-3.481,3.475c-1.911,0-3.468-1.56-3.468-3.475
			c0-1.914,1.557-3.471,3.468-3.471C365.708,670.159,367.265,671.713,367.265,673.627z"/>
		<circle fill="#EE4036" cx="351.824" cy="673.627" r="3.475"/>
		<circle fill="#EE4036" cx="339.853" cy="673.626" r="3.477"/>
	</g>
	<g>
		<polygon fill="#EAC40A" points="399,460.091 385,464.021 385,450.098 399,454.029 		"/>
		<polygon fill="#EAC40A" points="399,460.091 413,464.021 413,450.098 399,454.029 		"/>
	</g>
	<polygon fill="#EAC40A" points="402,468 396,468 396,463.557 399,461.938 402,463.557 	"/>
</g>
<g>
	<polygon fill="#F58426" points="330.359,430.515 344.373,448.489 347.035,451.904 342.919,451.463 329.949,450.071 
		330.743,448.133 345.74,462.853 329.275,449.795 326.825,447.853 330.069,447.856 343.113,447.873 341.659,450.846 
		325.829,434.448 	"/>
</g>
<g>
	<polygon fill="#F58426" points="471.006,434.448 455.176,450.846 453.722,447.873 466.766,447.856 470.009,447.853 
		467.559,449.795 451.094,462.853 466.091,448.133 466.885,450.071 453.916,451.463 449.799,451.904 452.461,448.489 
		466.475,430.515 	"/>
</g>
<polygon fill="#006171" points="749.519,220.308 754.519,212.744 751.125,204.336 759.863,206.754 766.81,200.929 767.211,209.987 
	774.897,214.793 766.408,217.973 764.213,226.77 758.563,219.677 "/>
<polygon fill="#7BD3F7" points="684.755,529.555 672.22,526.277 662.416,534.746 661.656,521.813 650.572,515.105 662.638,510.389 
	665.593,497.771 673.808,507.791 686.718,506.701 679.729,517.611 "/>
<polygon fill="#F17881" points="143.13,557.643 152.153,562.65 161.395,558.059 159.419,568.188 166.643,575.557 156.399,576.809 
	151.622,585.955 147.267,576.6 137.09,574.883 144.643,567.85 "/>
<polygon fill="#7BD3F7" points="76.173,66.811 65.395,62.667 55.87,69.199 56.48,57.667 47.325,50.627 58.481,47.644 62.346,36.763 
	68.632,46.45 80.175,46.764 72.904,55.735 "/>
<path fill="#F8D50D" d="M438.274,214.967c-10.316-22.409-3.94-48.227,13.932-63.505c-4.798,0.755-9.577,2.16-14.21,4.292
	c-27.045,12.446-38.878,44.466-26.43,71.507c12.446,27.047,44.461,38.882,71.506,26.435c4.633-2.134,8.805-4.847,12.501-8.007
	C472.345,249.333,448.59,237.387,438.274,214.967z"/>
<g>
	<g>
		<path fill="#639A47" d="M622.485,68.907c-1.291-1.839-2.73-3.557-4.314-5.108c-13.498,1.472-27.313-0.026-39.858-5.157
			c-4.494,2.561-8.468,6.137-11.63,10.471C585.325,73.265,604.097,72.589,622.485,68.907z"/>
		<path fill="#639A47" d="M626.724,76.817c-1.113-2.826-2.535-5.482-4.238-7.911c-18.391,3.682-37.162,4.358-55.807,0.206
			c-3.146,4.295-5.48,9.351-6.744,14.911C582.426,88.281,604.883,84.401,626.724,76.817z"/>
		<path fill="#487F3F" d="M629.227,86.849c-0.408-3.502-1.256-6.875-2.503-10.033c-21.843,7.585-44.298,11.463-66.787,7.205
			c-0.133,0.581-0.256,1.168-0.37,1.757C582.52,92.286,606.539,92.487,629.227,86.849z"/>
		<path fill="#639A47" d="M628.788,99.273c0.136-0.734,0.259-1.477,0.357-2.223c0.454-3.477,0.464-6.895,0.081-10.2
			c-22.688,5.639-46.707,5.437-69.66-1.071c-0.128,0.678-0.241,1.364-0.335,2.056c-0.35,2.653-0.438,5.272-0.293,7.836
			C581.566,103.813,605.698,104.194,628.788,99.273z"/>
		<path fill="#487F3F" d="M627.739,103.558c0.421-1.397,0.776-2.823,1.049-4.285c-23.09,4.923-47.222,4.541-69.85-3.601
			c0.096,1.629,0.317,3.226,0.595,4.803C580.142,108.759,604.718,107.07,627.739,103.558z"/>
		<path fill="#639A47" d="M622.013,115.338c2.479-3.491,4.436-7.456,5.727-11.78c-23.021,3.512-47.598,5.201-68.206-3.083
			c0.822,4.625,2.446,8.965,4.698,12.846C583.315,117.7,603.438,119.15,622.013,115.338z"/>
		<path fill="#639A47" d="M622.013,115.338c-18.574,3.812-38.697,2.362-57.781-2.017c2.721,4.685,6.385,8.681,10.751,11.665
			c15.631,0.615,30.728-4.018,45.853-8.09C621.234,116.385,621.633,115.871,622.013,115.338z"/>
		<path fill="#487F3F" d="M574.984,124.985c4.157,2.841,8.956,4.763,14.197,5.453c12.32,1.625,24.049-3.892,31.653-13.543
			C605.711,120.966,590.613,125.601,574.984,124.985z"/>
		<path fill="#487F3F" d="M618.171,63.798c-5.083-4.988-11.593-8.383-18.973-9.354c-7.435-0.977-14.655,0.644-20.885,4.197
			C590.857,63.772,604.673,65.271,618.171,63.798z"/>
	</g>
	<path fill="#603813" d="M644.4,90.468c0.025-6.426-7.237-12.204-18.667-16.059c1.19,2.784,2.262,5.733,2.818,8.614
		c2.974,2.114,4.942,4.549,4.934,7.085c-0.033,8.365-18.387,15.064-40.984,14.969c-22.601-0.1-40.895-6.961-40.854-15.323
		c0.013-3.798,3.058-6.904,9.312-9.533c1.018-2.58,1.928-4.832,3.359-7.495c-14.331,3.634-23.557,9.964-23.588,17.292
		c-0.048,11.468,23.112,20.865,51.743,20.988C621.103,111.131,644.349,101.931,644.4,90.468z"/>
</g>
</svg>
