<?xml version="1.0" encoding="utf-8"?>
<!-- Generator: Adobe Illustrator 15.1.0, SVG Export Plug-In . SVG Version: 6.00 Build 0)  -->
<!DOCTYPE svg PUBLIC "-//W3C//DTD SVG 1.0//EN" "http://www.w3.org/TR/2001/REC-SVG-20010904/DTD/svg10.dtd">
<svg version="1.0" id="Layer_1" xmlns="http://www.w3.org/2000/svg" xmlns:xlink="http://www.w3.org/1999/xlink" x="0px" y="0px"
	 width="800px" height="800px" viewBox="0 0 800 800" enable-background="new 0 0 800 800" xml:space="preserve">
<g>
	<g>
		<polygon fill="#42718F" points="400.645,644.797 465.381,580.061 488.891,603.577 481.615,610.852 465.383,594.619 
			407.924,652.077 400.645,644.797 		"/>
		<path fill="#42718F" d="M395.295,669.238c-0.006-0.006,0.321-0.275,0.953-0.912l0,0c1.135-1.125,3.036-3.228,4.436-5.553l0,0
			c1.443-2.34,2.201-4.767,1.992-6.403l0,0c-0.144-1.11-0.471-2.065-1.768-3.411l0,0l-0.354-0.302l-0.254-0.337
			c-0.002-0.002-0.005-0.005-0.007-0.008l0,0c-0.357-0.328-1.485-1.34-3.587-1.34l0,0c-2.135-0.01-6.305,1.012-12.739,7.428l0,0
			l-7.281-7.282c7.536-7.561,14.301-10.454,20.046-10.438l0,0c5.744,0.019,9.435,2.928,10.851,4.371l0,0
			c0.175,0.176,0.323,0.335,0.448,0.474l0,0c0.037,0.037,0.066,0.067,0.088,0.089l0,0c0.03,0.029,0.046,0.045,0.051,0.051l0,0
			c2.832,2.792,4.433,6.298,4.749,9.664l0,0c0.331,3.374-0.436,6.451-1.54,9.091l0,0c-2.243,5.27-5.854,9.161-7.854,11.184l0,0
			c-0.83,0.831-1.386,1.324-1.454,1.387l0,0L395.295,669.238L395.295,669.238z"/>
	</g>
	<g>
		<polygon fill="#42718F" points="750.761,608.12 750.761,526.866 727.805,526.866 727.805,516.575 761.057,516.575 761.057,608.12 
			750.761,608.12 		"/>
		<path fill="#42718F" d="M737.225,627.866c0.008-2.129,0.148-5.652,1.085-9.515l0,0c0.965-3.824,2.683-8.199,6.613-11.46l0,0
			c2.599-2.159,6.21-3.504,10.19-3.474l0,0c0.012,0,0.066-0.003,0.159-0.003l0,0c0.192-0.012,0.426-0.02,0.693-0.02l0,0
			c2.024-0.019,6.685,0.53,10.764,4.58l0,0c4.073,4.053,6.812,10.882,6.8,21.558l0,0h-10.3c-0.018-9.09-2.245-12.754-3.76-14.258
			l0,0c-1.495-1.492-3.02-1.57-3.49-1.589l0,0l-0.414,0.053l-0.432-0.03c-0.007,0-0.013,0-0.021,0l0,0
			c-1.888,0.03-2.798,0.475-3.688,1.158l0,0c-0.868,0.703-1.685,1.871-2.317,3.434l0,0c-1.302,3.098-1.612,7.444-1.591,9.565l0,0
			c0,0.887,0.036,1.287,0.036,1.291l0,0l-10.267,0.752C737.279,629.809,737.229,629.057,737.225,627.866L737.225,627.866z"/>
	</g>
	<circle fill="#42718F" cx="644.888" cy="620.855" r="21.08"/>
	<circle fill="#42718F" cx="701.845" cy="620.855" r="21.079"/>
	<path fill="#FDCB26" d="M733.769,612.248c0,6.446-5.228,11.671-11.673,11.671h-95.039c-6.444,0-11.672-5.225-11.672-11.671V522.32
		c0-6.445,5.228-11.67,11.672-11.67h95.039c6.445,0,11.673,5.225,11.673,11.67V612.248z"/>
	<path fill="#42718F" d="M742.284,464.234c0,8.701-7.053,15.756-15.758,15.756c-8.7,0-15.753-7.055-15.753-15.756
		s7.053-15.756,15.753-15.756C735.231,448.479,742.284,455.533,742.284,464.234z"/>
	<circle fill="#42718F" cx="620.071" cy="464.234" r="15.756"/>
	<path fill="#F58426" d="M694.377,413.346c0,11.643-9.435,21.08-21.079,21.08c-11.641,0-21.077-9.438-21.077-21.08
		c0-11.64,9.437-21.077,21.077-21.077C684.942,392.269,694.377,401.706,694.377,413.346z"/>
	<rect x="645.194" y="414.414" fill="#42718F" width="55.356" height="10.219"/>
	<rect x="646.046" y="518.314" fill="#F58426" stroke="#7AC143" width="52.803" height="69.837"/>
	<rect x="650.305" y="595.815" fill="#42718F" width="45.137" height="6.813"/>
	<rect x="650.305" y="608.59" fill="#42718F" width="45.137" height="6.813"/>
	<path fill="#FDCB26" d="M723.647,492.527c0,6.249-5.065,11.314-11.314,11.314h-78.918c-6.251,0-11.315-5.065-11.315-11.314v-58.284
		c0-6.249,5.064-11.313,11.315-11.313h78.918c6.249,0,11.314,5.064,11.314,11.313V492.527z"/>
	<path fill="#A87C4F" d="M646.453,456.819c-2.189,2.188-5.156,3.118-8.01,2.802c0.265,2.08,1.185,4.093,2.783,5.691
		c3.823,3.824,10.024,3.826,13.85,0.002c3.825-3.826,3.825-10.029,0.001-13.854c-1.637-1.636-3.709-2.566-5.843-2.803
		C649.602,451.559,648.681,454.592,646.453,456.819z"/>
	<path fill="#A87C4F" d="M709.029,459.49c-2.861,0.323-5.837-0.605-8.031-2.8c-2.193-2.193-3.122-5.168-2.799-8.027
		c-2.127,0.24-4.192,1.169-5.823,2.801c-3.824,3.824-3.825,10.026-0.001,13.851c3.827,3.827,10.027,3.824,13.852,0
		C707.859,463.682,708.788,461.618,709.029,459.49z"/>
	<circle fill="#7AC143" cx="672.448" cy="539.606" r="9.794"/>
	<circle fill="#7AC143" cx="672.448" cy="570.267" r="9.794"/>
	<path fill="#A87C4F" d="M672.489,470.869c-17.596,0-26.212,16.018-26.212,16.018l9.466,6.554c0,0,4.854-11.649,16.746-11.649
		s16.746,11.649,16.746,11.649l9.465-6.554C698.7,486.887,690.084,470.869,672.489,470.869z"/>
	<g>
		<path fill="#FDCB26" d="M675.395,341.986c0.912,0.32,1.634,1.069,2.225,1.844c0.597,0.791,1.03,1.684,1.411,2.59
			c0.724,1.832,1.079,3.764,1.262,5.679l0.029,0.36l0.021,0.388c0.009,0.239,0.03,0.44,0.03,0.709
			c0.005,0.542-0.027,1.058-0.067,1.565c-0.087,1.025-0.303,2.045-0.599,3.029c-0.596,1.977-1.578,3.749-2.52,5.336
			c-0.955,1.585-1.856,3.028-2.438,4.496c-0.301,0.732-0.51,1.479-0.661,2.249c-0.071,0.386-0.116,0.778-0.153,1.176l-0.08,1.319
			c-0.083,1.744-0.068,3.508,0.122,5.257c0.194,1.75,0.53,3.512,1.417,5.159c-1.596-1.09-2.565-2.901-3.318-4.668
			c-0.727-1.811-1.135-3.715-1.363-5.638c-0.057-0.512-0.096-0.935-0.134-1.434c-0.026-0.521-0.024-1.045,0.006-1.572
			c0.058-1.055,0.278-2.105,0.586-3.104c0.628-2.012,1.66-3.726,2.582-5.288c0.943-1.557,1.784-3.003,2.372-4.511
			c0.301-0.752,0.523-1.523,0.701-2.315c0.083-0.403,0.147-0.8,0.203-1.175c0.034-0.189,0.049-0.447,0.074-0.667l0.031-0.3
			l0.023-0.329c0.126-1.752,0.158-3.505-0.021-5.238c-0.076-0.871-0.247-1.724-0.496-2.565
			C676.375,343.51,676.038,342.667,675.395,341.986z"/>
	</g>
	<g>
		<path fill="#FDCB26" d="M687.666,349.481c0.628,0.138,1.157,0.597,1.592,1.08c0.443,0.494,0.765,1.069,1.063,1.651
			c0.557,1.182,0.856,2.443,1.027,3.69l0.029,0.235l0.023,0.263c0.012,0.155,0.032,0.273,0.038,0.458
			c0.015,0.375-0.001,0.725-0.019,1.066c-0.038,0.694-0.175,1.388-0.361,2.056c-0.38,1.343-1.03,2.528-1.628,3.543
			c-0.613,1.013-1.162,1.88-1.522,2.714c-0.19,0.417-0.321,0.837-0.435,1.274c-0.053,0.219-0.089,0.445-0.124,0.676l-0.09,0.818
			c-0.109,1.076-0.172,2.172-0.148,3.272c0.021,1.109,0.119,2.221,0.554,3.37c-1.144-0.592-1.875-1.752-2.456-2.879
			c-0.559-1.162-0.891-2.398-1.093-3.653l-0.124-0.933c-0.028-0.353-0.034-0.71-0.022-1.071c0.02-0.723,0.162-1.445,0.358-2.129
			c0.407-1.378,1.088-2.518,1.668-3.507c1.211-1.971,1.993-3.435,2.218-5.53c0.138-1.084,0.227-2.165,0.214-3.25
			c0.006-0.546-0.053-1.083-0.149-1.625C688.17,350.533,688.025,349.981,687.666,349.481z"/>
	</g>
	<g>
		<path fill="#FDCB26" d="M663.923,349.481c0.628,0.138,1.157,0.597,1.592,1.08c0.444,0.493,0.766,1.068,1.064,1.651
			c0.557,1.182,0.856,2.443,1.027,3.691l0.029,0.235l0.023,0.263c0.012,0.155,0.032,0.273,0.038,0.458
			c0.015,0.375-0.001,0.725-0.019,1.066c-0.038,0.694-0.175,1.388-0.361,2.056c-0.381,1.342-1.031,2.528-1.63,3.543
			c-0.612,1.012-1.162,1.88-1.522,2.714c-0.19,0.417-0.321,0.836-0.435,1.274c-0.053,0.219-0.089,0.445-0.124,0.676l-0.09,0.817
			c-0.109,1.076-0.172,2.173-0.148,3.273c0.021,1.109,0.12,2.221,0.555,3.37c-1.144-0.592-1.876-1.752-2.456-2.878
			c-0.56-1.162-0.892-2.399-1.094-3.654l-0.124-0.933c-0.028-0.353-0.034-0.71-0.022-1.071c0.02-0.723,0.162-1.446,0.358-2.129
			c0.408-1.378,1.089-2.518,1.669-3.507c1.211-1.97,1.994-3.435,2.219-5.529c0.138-1.084,0.227-2.165,0.214-3.25
			c0.006-0.546-0.053-1.083-0.149-1.625C664.428,350.533,664.283,349.981,663.923,349.481z"/>
	</g>
	
		<rect x="606.924" y="638.624" transform="matrix(0.7071 0.7071 -0.7071 0.7071 637.4007 -251.2794)" fill="#7AC143" width="30.194" height="10.294"/>
	
		<rect x="595.763" y="649.786" transform="matrix(0.7071 0.7071 -0.7071 0.7071 642.0446 -240.1174)" fill="#F58426" width="30.195" height="10.294"/>
	
		<rect x="584.602" y="660.947" transform="matrix(0.7071 0.7071 -0.7071 0.7071 646.647 -228.9575)" fill="#42718F" width="30.196" height="10.293"/>
	<path fill="#FDCB26" d="M596.065,698.844c-4.558,4.558-11.947,4.558-16.507-0.002l-22.797-22.797
		c-4.559-4.559-4.559-11.948-0.002-16.506l1.449-1.449c4.558-4.558,11.947-4.558,16.506,0.002l22.797,22.797
		c4.56,4.559,4.56,11.949,0.002,16.507L596.065,698.844z"/>
	
		<rect x="664.442" y="638.624" transform="matrix(0.7071 0.7071 -0.7071 0.7071 654.226 -291.9503)" fill="#7AC143" width="30.195" height="10.294"/>
	
		<rect x="653.281" y="649.786" transform="matrix(0.7071 0.7071 -0.7071 0.7071 658.8923 -280.7902)" fill="#F58426" width="30.195" height="10.294"/>
	
		<rect x="642.12" y="660.947" transform="matrix(0.7071 0.7071 -0.7071 0.7071 663.4937 -269.6289)" fill="#42718F" width="30.196" height="10.292"/>
	<path fill="#FDCB26" d="M653.583,698.844c-4.558,4.558-11.947,4.558-16.506-0.002l-22.798-22.797
		c-4.558-4.559-4.558-11.948-0.001-16.506l1.449-1.449c4.558-4.558,11.947-4.558,16.506,0.002l22.797,22.797
		c4.56,4.559,4.56,11.949,0.001,16.507L653.583,698.844z"/>
</g>
<g enable-background="new    ">
	<path fill="#32617C" d="M193.493,390.981c-1.656,0.071-3.168,0.096-4.392,0.096l-0.24-1.896c2.928,0,7.681-0.048,11.209-0.624
		l0.144,1.681c-1.344,0.288-2.832,0.504-4.344,0.6v3.385h-2.376V390.981z M189.869,384.885c0-1.944,1.92-3.217,4.728-3.217
		c2.833,0,4.729,1.272,4.729,3.217c0,1.992-1.896,3.24-4.729,3.24C191.789,388.125,189.869,386.877,189.869,384.885z
		 M192.101,384.885c0,0.96,0.984,1.512,2.496,1.512c1.536,0,2.521-0.552,2.521-1.512c0-0.937-0.984-1.488-2.521-1.488
		C193.085,383.396,192.101,383.948,192.101,384.885z M205.014,395.062h2.448v7.272h-14.929v-7.272h2.448v1.752h10.033V395.062z
		 M205.014,398.686h-10.033v1.704h10.033V398.686z M201.102,391.605v-10.273h2.328v12.913h-2.328v-0.96h-3.528v-1.68H201.102z
		 M207.462,380.9v13.393h-2.352V380.9H207.462z"/>
	<path fill="#32617C" d="M218.669,386.276c0,3.864,2.016,7.777,5.281,9.385l-1.512,1.969c-2.328-1.2-4.057-3.553-4.993-6.385
		c-0.936,3-2.76,5.521-5.232,6.793l-1.512-1.992c3.384-1.656,5.497-5.761,5.497-9.77v-3.552h2.472V386.276z M231.247,391.558h-3.384
		v11.041h-2.472v-21.675h2.472v8.593h3.384V391.558z"/>
	<path fill="#32617C" d="M245.045,390.141c0,4.705-2.352,7.657-5.592,7.657c-3.216,0-5.568-2.952-5.568-7.657
		c0-4.656,2.352-7.632,5.568-7.632C242.693,382.509,245.045,385.484,245.045,390.141z M236.261,390.141
		c0,3.409,1.32,5.449,3.192,5.449c1.896,0,3.216-2.04,3.216-5.449c0-3.359-1.32-5.4-3.216-5.4
		C237.581,384.74,236.261,386.781,236.261,390.141z M250.998,380.9v21.746h-2.496V380.9H250.998z"/>
	<path fill="#32617C" d="M274.902,397.918v2.016h-19.658v-2.016H274.902z M272.694,394.365h-15.025v-11.688h14.857v1.992h-12.337
		v2.784h11.857v1.944h-11.857v2.976h12.505V394.365z"/>
	<path fill="#32617C" d="M289.134,381.332h2.304v20.234h-2.304v-10.394h-2.304c-0.216,4.225-1.992,6.817-4.632,6.817
		c-2.809,0-4.657-2.953-4.657-7.705c0-4.753,1.848-7.681,4.657-7.681c2.592,0,4.344,2.472,4.608,6.528h2.328V381.332z
		 M284.597,390.285c0-3.433-0.912-5.353-2.4-5.353c-1.488,0-2.4,1.92-2.4,5.353s0.912,5.376,2.4,5.376
		C283.685,395.661,284.597,393.718,284.597,390.285z M295.83,380.924v21.65h-2.352v-21.65H295.83z"/>
	<path fill="#32617C" d="M307.253,386.253c0,4.032,2.064,7.969,5.376,9.505l-1.464,1.992c-2.448-1.225-4.201-3.601-5.137-6.505
		c-0.96,3.072-2.736,5.593-5.208,6.864l-1.56-1.968c3.384-1.656,5.497-5.832,5.497-9.889v-3.576h2.496V386.253z M317.406,380.876
		v21.746h-2.496v-12.601h-4.632v-2.017h4.632v-7.129H317.406z"/>
	<path fill="#32617C" d="M335.333,395.109c0.696-0.072,1.392-0.144,2.016-0.24l0.168,1.801c-3.384,0.672-7.849,0.768-10.585,0.768
		l-0.288-2.04c0.6,0,1.272,0,1.992,0v-9.865h-1.56v-1.992h9.865v1.992h-1.608V395.109z M330.893,395.35
		c0.72-0.024,1.44-0.048,2.184-0.096v-9.722h-2.184V395.35z M338.909,381.404h2.328v20.113h-2.328v-10.32h-2.568v-2.185h2.568
		V381.404z M345.534,380.924v21.675h-2.376v-21.675H345.534z"/>
	<path fill="#32617C" d="M360.845,390.141c0,4.705-2.352,7.657-5.592,7.657c-3.216,0-5.568-2.952-5.568-7.657
		c0-4.656,2.352-7.632,5.568-7.632C358.493,382.509,360.845,385.484,360.845,390.141z M352.061,390.141
		c0,3.409,1.32,5.449,3.192,5.449c1.896,0,3.216-2.04,3.216-5.449c0-3.359-1.32-5.4-3.216-5.4
		C353.381,384.74,352.061,386.781,352.061,390.141z M366.798,380.9v21.746h-2.496V380.9H366.798z"/>
	<path fill="#32617C" d="M379.037,387.188c0,3.601,2.232,7.345,5.617,8.785l-1.368,1.944c-2.521-1.104-4.464-3.456-5.473-6.265
		c-0.96,3.024-2.904,5.593-5.448,6.816l-1.417-1.968c3.36-1.561,5.593-5.593,5.593-9.313v-2.063h-4.825v-2.041h12.145v2.041h-4.824
		V387.188z M388.878,380.924v21.675h-2.496v-21.675H388.878z"/>
	<path fill="#32617C" d="M412.758,390.861v1.824h-19.657v-1.824H412.758z M397.877,400.654h13.129v1.704h-15.577v-4.969h12.481
		v-1.536h-12.529v-1.704h14.977v4.849h-12.48V400.654z M407.838,383.156h-12.265v-1.704h14.713v4.776h-12.241v1.536h12.625v1.729
		h-15.049v-4.872h12.217V383.156z"/>
	<path fill="#32617C" d="M440.262,398.062v2.04h-19.658v-2.04h5.161v-4.656h-3.48v-1.992h3.12v-6.624h-3.192v-1.992h16.298v1.992
		h-3.192v6.624h3.12v1.992h-3.48v4.656H440.262z M427.877,391.413h4.992v-6.624h-4.992V391.413z M428.236,398.062h4.272v-4.656
		h-4.272V398.062z"/>
	<path fill="#32617C" d="M450.677,386.276c0,3.984,2.208,7.969,5.616,9.505l-1.439,1.969c-2.496-1.177-4.393-3.576-5.377-6.505
		c-0.984,3.145-2.904,5.713-5.521,6.984l-1.464-2.063c3.456-1.561,5.713-5.713,5.713-9.89v-3.552h2.472V386.276z M460.518,380.9
		v21.746h-2.496V380.9H460.518z"/>
	<path fill="#32617C" d="M482.98,384.621h-12.793v-1.873h5.16v-2.04h2.473v2.04h5.16V384.621z M476.572,392.47
		c-3.168,0-5.257-1.345-5.257-3.528c0-2.209,2.089-3.577,5.257-3.577c3.191,0,5.256,1.368,5.256,3.577
		C481.828,391.125,479.764,392.47,476.572,392.47z M475.564,400.558h12.24v1.849H473.14v-5.28h11.497v-1.561h-11.545v-1.824h13.993
		v5.112h-11.521V400.558z M476.572,390.693c1.775,0,2.904-0.648,2.904-1.752c0-1.129-1.129-1.776-2.904-1.776
		c-1.752,0-2.881,0.647-2.881,1.776C473.691,390.045,474.82,390.693,476.572,390.693z M490.157,385.82v2.041h-3.072v4.896h-2.472
		v-11.881h2.472v4.944H490.157z"/>
	<path fill="#32617C" d="M517.229,394.966h-8.616v7.656h-2.472v-7.656h-8.497v-2.017h19.585V394.966z M515.43,390.909
		c-3.602-0.576-6.553-2.4-7.969-4.896c-1.393,2.521-4.393,4.32-7.993,4.896l-0.96-1.992c4.416-0.624,7.633-3.288,7.633-6.145v-1.152
		h2.615v1.152c0,2.809,3.266,5.521,7.633,6.145L515.43,390.909z"/>
	<path fill="#32617C" d="M536.596,387.837c-0.479,2.448-2.664,4.08-5.544,4.08c-3.241,0-5.641-2.063-5.641-5.064
		c0-2.952,2.399-5.017,5.641-5.017c2.856,0,5.04,1.585,5.521,3.961h4.032v-4.849h2.472v11.449h-2.472v-4.561H536.596z
		 M535.229,393.646v8.688h-7.682v-8.688h2.305v2.448h3.096v-2.448H535.229z M531.052,389.877c1.896,0,3.288-1.2,3.288-3.024
		c0-1.8-1.393-2.976-3.288-2.976c-1.896,0-3.265,1.176-3.265,2.976C527.787,388.677,529.155,389.877,531.052,389.877z
		 M532.947,397.918h-3.096v2.52h3.096V397.918z M541.517,395.205c0,2.305,1.2,4.513,3.816,5.473l-1.224,1.872
		c-1.921-0.744-3.169-2.136-3.841-3.792c-0.72,1.632-1.944,3.024-3.792,3.792l-1.248-1.872c2.615-1.08,3.84-3.336,3.84-5.473v-1.728
		h2.448V395.205z"/>
	<path fill="#32617C" d="M566.813,390.621v1.968H547.18v-1.968H566.813z M564.869,389.325c-3.529-0.48-6.457-2.112-7.873-4.368
		c-1.393,2.256-4.32,3.888-7.849,4.368l-0.912-1.92c4.345-0.553,7.488-2.904,7.488-5.425v-0.84h2.544v0.84
		c0,2.496,3.193,4.872,7.489,5.425L564.869,389.325z M561.82,393.934h2.473v8.4h-14.689v-8.4h2.448v2.208h9.769V393.934z
		 M561.82,398.038h-9.769v2.328h9.769V398.038z"/>
	<path fill="#32617C" d="M573.004,395.014c3.072-0.024,6.313-0.288,9.721-0.984l0.264,2.064c-3.721,0.768-7.225,1.032-10.585,1.032
		h-1.849v-14.09h2.449V395.014z M587.189,380.924v21.675h-2.473v-21.675H587.189z"/>
	<path fill="#32617C" d="M594.699,395.229c3.504-0.024,6.145-0.168,9.168-0.696l0.265,2.04c-3.288,0.601-6.216,0.721-10.129,0.721
		h-1.776v-14.329h10.081v2.016h-7.608V395.229z M611.524,391.293h-3.384v11.329h-2.473V380.9h2.473v8.353h3.384V391.293z"/>
</g>
<g enable-background="new    ">
	<path fill="#32617C" d="M301.186,441.837c-1.152,0.063-2.241,0.063-3.121,0.063l-0.16-1.024c1.985,0,5.186-0.031,7.571-0.416
		l0.096,0.913c-0.977,0.191-2.065,0.319-3.137,0.399v2.386h-1.249V441.837z M298.673,437.932c0-1.313,1.249-2.129,3.105-2.129
		c1.873,0,3.121,0.816,3.121,2.129c0,1.328-1.249,2.145-3.121,2.145C299.921,440.076,298.673,439.26,298.673,437.932z
		 M299.857,437.932c0,0.736,0.752,1.2,1.921,1.2s1.937-0.464,1.937-1.2s-0.768-1.201-1.937-1.201S299.857,437.195,299.857,437.932z
		 M308.805,444.718h1.28v4.754h-9.652v-4.754h1.296v1.345h7.075V444.718z M308.805,447.071h-7.075v1.36h7.075V447.071z
		 M306.244,442.413v-6.851h1.232v8.596h-1.232v-0.801h-2.513v-0.944H306.244z M310.085,435.322v8.867h-1.249v-8.867H310.085z"/>
	<path fill="#32617C" d="M317.539,439.132c0,2.529,1.632,5.138,3.649,6.146l-0.816,1.04c-1.521-0.816-2.817-2.497-3.474-4.466
		c-0.624,2.097-1.953,3.89-3.569,4.754l-0.784-1.056c2.065-1.057,3.697-3.81,3.697-6.419v-2.577h1.297V439.132z M326.134,442.221
		h-2.369v7.443h-1.313v-14.342h1.313v5.811h2.369V442.221z"/>
	<path fill="#32617C" d="M335.268,441.421c0,3.057-1.521,5.01-3.649,5.01s-3.649-1.953-3.649-5.01c0-3.058,1.521-5.011,3.649-5.011
		S335.268,438.363,335.268,441.421z M329.217,441.421c0,2.337,0.993,3.841,2.401,3.841c1.393,0,2.385-1.504,2.385-3.841
		c0-2.321-0.993-3.826-2.385-3.826C330.21,437.595,329.217,439.1,329.217,441.421z M339.189,435.307v14.39h-1.313v-14.39H339.189z"
		/>
	<path fill="#32617C" d="M355.174,446.734v1.073h-13.029v-1.073H355.174z M353.686,444.109h-9.86v-7.555h9.716v1.057h-8.387v2.129
		h8.067v1.04h-8.067v2.273h8.531V444.109z"/>
	<path fill="#32617C" d="M356.977,445.438c2.609,0,6.21-0.017,9.348-0.496l0.112,0.977c-3.233,0.607-6.707,0.624-9.3,0.624
		L356.977,445.438z M365.38,439.74c0,2.001-1.601,3.377-3.841,3.377c-2.225,0-3.842-1.376-3.842-3.377
		c0-2.017,1.617-3.378,3.842-3.378C363.779,436.362,365.38,437.724,365.38,439.74z M358.978,439.74c0,1.328,1.072,2.257,2.561,2.257
		c1.488,0,2.561-0.929,2.561-2.257c0-1.345-1.073-2.257-2.561-2.257C360.05,437.483,358.978,438.396,358.978,439.74z
		 M368.581,435.307v14.39h-1.313v-14.39H368.581z"/>
	<path fill="#32617C" d="M380.21,439.115c0,2.609,1.632,5.219,3.713,6.211l-0.769,1.04c-1.632-0.815-2.945-2.528-3.601-4.545
		c-0.625,2.128-1.953,3.938-3.57,4.802l-0.8-1.041c2.081-1.04,3.714-3.81,3.714-6.467v-2.576h1.313V439.115z M387.013,435.307
		v14.373h-1.313v-8.436h-3.33v-1.072h3.33v-4.865H387.013z"/>
	<path fill="#32617C" d="M401.733,435.307v14.39h-1.313v-8.004h-3.361v4.37h-6.579v-9.62h1.296v3.729h4.001v-3.729h1.281v4.194
		h3.361v-5.33H401.733z M395.779,441.213h-4.001v3.777h4.001V441.213z"/>
	<path fill="#32617C" d="M412.725,435.626h1.248v13.334h-1.248v-6.995h-1.81c-0.112,2.817-1.28,4.546-3.041,4.546
		c-1.872,0-3.073-1.921-3.073-5.026c0-3.057,1.201-4.978,3.073-4.978c1.729,0,2.882,1.681,3.041,4.386h1.81V435.626z
		 M409.73,441.484c0-2.305-0.736-3.761-1.856-3.761c-1.152,0-1.872,1.456-1.872,3.761c0,2.354,0.72,3.81,1.872,3.81
		C408.994,445.294,409.73,443.838,409.73,441.484z M416.822,435.307v14.357h-1.249v-14.357H416.822z"/>
	<path fill="#32617C" d="M435.941,442.653v1.057h-5.762v2.896h-1.313v-2.896h-5.971v-1.057H435.941z M425.873,448.271h8.611v1.072
		h-9.924v-4.098h1.313V448.271z M434.245,441.021h-9.651v-5.042h9.651V441.021z M432.948,437.035h-7.075v2.929h7.075V437.035z"/>
	<path fill="#32617C" d="M441.857,439.355c0,2.497,1.072,4.994,3.058,6.115l-0.8,0.96c-1.393-0.832-2.385-2.369-2.882-4.193
		c-0.496,1.969-1.536,3.649-2.961,4.546l-0.8-0.977c2-1.201,3.121-3.81,3.121-6.451v-1.296h-2.722v-1.072h6.547v1.072h-2.562
		V439.355z M445.699,435.626h1.248v13.286h-1.248v-7.38h-2.369v-1.072h2.369V435.626z M449.846,435.29v14.358h-1.266V435.29H449.846
		z"/>
	<path fill="#32617C" d="M459.699,436.843c0,4.082-1.873,7.779-6.515,10.1l-0.72-1.023c3.665-1.841,5.634-4.595,5.938-7.987h-5.266
		v-1.089H459.699z M465.718,442.221h-2.306v7.443H462.1v-14.357h1.313v5.826h2.306V442.221z"/>
	<path fill="#32617C" d="M471.009,439.5c0-1.985,1.568-3.346,3.729-3.346c2.177,0,3.762,1.36,3.762,3.346
		c0,1.984-1.585,3.345-3.762,3.345C472.577,442.845,471.009,441.484,471.009,439.5z M480.853,444.91
		c0,1.488,1.057,2.961,2.882,3.569l-0.656,0.992c-1.409-0.512-2.401-1.504-2.882-2.705c-0.448,1.169-1.329,2.257-2.657,2.833
		c-1.377-0.544-2.24-1.584-2.673-2.785c-0.513,1.153-1.489,2.146-2.833,2.657l-0.656-0.992c1.809-0.641,2.881-2.193,2.881-3.569
		v-0.769h1.265v0.769c0,1.265,0.656,2.625,1.985,3.409c1.376-0.849,2.064-2.289,2.064-3.409v-0.769h1.28V444.91z M472.289,439.5
		c0,1.328,1.024,2.257,2.449,2.257c1.424,0,2.48-0.929,2.48-2.257c0-1.313-1.057-2.257-2.48-2.257
		C473.313,437.243,472.289,438.188,472.289,439.5z M482.453,443.518h-1.313v-8.195h1.313V443.518z"/>
	<path fill="#32617C" d="M497.221,435.307v14.39h-1.313v-7.844h-3.121c-0.128,2.817-1.553,4.578-3.553,4.578
		c-2.098,0-3.586-1.953-3.586-5.01c0-3.058,1.488-5.011,3.586-5.011c1.936,0,3.345,1.681,3.553,4.37h3.121v-5.474H497.221z
		 M491.555,441.421c0-2.321-0.961-3.826-2.32-3.826c-1.377,0-2.338,1.505-2.338,3.826c0,2.337,0.961,3.841,2.338,3.841
		C490.594,445.262,491.555,443.758,491.555,441.421z"/>
	<path fill="#32617C" d="M295.618,465.037c-1.152,0.063-2.241,0.063-3.121,0.063l-0.16-1.024c1.985,0,5.186-0.031,7.571-0.416
		l0.096,0.913c-0.977,0.191-2.065,0.319-3.137,0.399v2.386h-1.249V465.037z M293.104,461.132c0-1.313,1.249-2.129,3.105-2.129
		c1.873,0,3.121,0.816,3.121,2.129c0,1.328-1.249,2.145-3.121,2.145C294.353,463.276,293.104,462.46,293.104,461.132z
		 M294.289,461.132c0,0.736,0.752,1.2,1.921,1.2s1.937-0.464,1.937-1.2s-0.768-1.201-1.937-1.201S294.289,460.396,294.289,461.132z
		 M303.237,467.918h1.28v4.754h-9.652v-4.754h1.296v1.345h7.075V467.918z M303.237,470.271h-7.075v1.36h7.075V470.271z
		 M300.676,465.613v-6.851h1.232v8.596h-1.232v-0.801h-2.513v-0.944H300.676z M304.517,458.522v8.867h-1.249v-8.867H304.517z"/>
	<path fill="#32617C" d="M316.242,468.046c0.512-0.048,1.041-0.096,1.505-0.16l0.08,0.961c-2.225,0.416-5.234,0.48-7.107,0.48
		l-0.128-1.089c0.432,0,0.913,0,1.457-0.016v-6.835h-1.184v-1.057h6.563v1.057h-1.185V468.046z M313.249,468.19
		c0.592-0.017,1.185-0.032,1.793-0.064v-6.738h-1.793V468.19z M318.963,458.858h1.232v13.254h-1.232v-6.979h-1.953v-1.152h1.953
		V458.858z M322.997,458.522v14.342h-1.265v-14.342H322.997z"/>
	<path fill="#32617C" d="M333.283,464.621c0,3.057-1.521,5.01-3.649,5.01s-3.649-1.953-3.649-5.01c0-3.058,1.521-5.011,3.649-5.011
		S333.283,461.563,333.283,464.621z M327.233,464.621c0,2.337,0.993,3.841,2.401,3.841c1.393,0,2.385-1.504,2.385-3.841
		c0-2.321-0.993-3.826-2.385-3.826C328.226,460.795,327.233,462.3,327.233,464.621z M337.205,458.507v14.39h-1.313v-14.39H337.205z"
		/>
	<path fill="#32617C" d="M345.298,462.893c0,2.433,1.729,4.913,3.842,5.81l-0.736,1.057c-1.665-0.769-3.073-2.417-3.762-4.386
		c-0.656,2.097-2.064,3.905-3.697,4.738l-0.769-1.057c2.065-0.977,3.81-3.682,3.81-6.162v-1.825h-3.329v-1.089h8.019v1.089h-3.377
		V462.893z M351.925,458.522v14.342h-1.313v-14.342H351.925z"/>
	<path fill="#32617C" d="M362.227,460.043c0,4.082-1.873,7.779-6.515,10.101l-0.72-1.025c3.666-1.84,5.634-4.594,5.938-7.986h-5.266
		v-1.089H362.227z M368.246,465.421h-2.305v7.443h-1.313v-14.357h1.313v5.826h2.305V465.421z"/>
	<path fill="#32617C" d="M386.213,470.047v1.072h-13.029v-1.072h3.617v-3.409h-2.417v-1.057h2.193v-4.689h-2.225v-1.057h10.644
		v1.057h-2.225v4.689h2.208v1.057h-2.433v3.409H386.213z M377.89,465.581h3.57v-4.689h-3.57V465.581z M378.114,470.047h3.122v-3.409
		h-3.122V470.047z"/>
	<path fill="#32617C" d="M393.01,462.332c0,2.625,1.712,5.266,3.841,6.227l-0.784,1.057c-1.633-0.801-3.009-2.497-3.697-4.546
		c-0.656,2.16-2.033,3.953-3.714,4.817l-0.8-1.072c2.113-1.009,3.858-3.762,3.858-6.482v-2.577h1.296V462.332z M399.669,458.507
		v14.39h-1.313v-14.39H399.669z"/>
	<path fill="#32617C" d="M408.035,468.574c1.376-0.063,2.769-0.144,4.049-0.304l0.112,0.96c-3.138,0.48-6.579,0.545-9.3,0.545
		l-0.16-1.104c1.232,0,2.594,0,3.986-0.049v-2.849h-2.93v-5.923h7.267v1.089h-5.97v3.762h6.033v1.072h-3.088V468.574z
		 M414.341,458.49v14.406h-1.313V458.49H414.341z"/>
	<path fill="#32617C" d="M422.482,462.893c0,2.433,1.729,4.913,3.842,5.81l-0.736,1.057c-1.665-0.769-3.074-2.417-3.762-4.386
		c-0.656,2.097-2.064,3.905-3.697,4.738l-0.77-1.057c2.065-0.977,3.811-3.682,3.811-6.162v-1.825h-3.33v-1.089h8.02v1.089h-3.377
		V462.893z M429.109,458.522v14.342h-1.313v-14.342H429.109z"/>
	<path fill="#32617C" d="M439.649,465.949c-2.146,0-3.714-1.36-3.714-3.313c0-1.952,1.568-3.313,3.714-3.313
		c2.129,0,3.697,1.361,3.697,3.313C443.347,464.589,441.778,465.949,439.649,465.949z M438.449,471.407
		c0.832-0.031,1.889-0.16,2.881-0.479l0.208,1.04c-1.36,0.448-2.705,0.528-3.682,0.528h-0.688v-5.282h1.281V471.407z
		 M439.649,464.877c1.376,0,2.417-0.929,2.417-2.241s-1.041-2.24-2.417-2.24c-1.393,0-2.433,0.928-2.433,2.24
		S438.257,464.877,439.649,464.877z M445.268,467.31h2.961v0.977h-7.219v-0.977h2.978v-1.296h1.28V467.31z M447.285,470.815
		c0,1.248-1.105,2.033-2.658,2.033s-2.656-0.785-2.656-2.033c0-1.232,1.104-2.017,2.656-2.017S447.285,469.583,447.285,470.815z
		 M446.116,470.815c0-0.656-0.624-1.089-1.489-1.089c-0.88,0-1.488,0.433-1.488,1.089s0.608,1.104,1.488,1.104
		C445.492,471.92,446.116,471.472,446.116,470.815z M448.934,461.724v1.089h-2.129v2.849h-1.313v-7.154h1.313v3.217H448.934z"/>
	<path fill="#32617C" d="M450.656,462.732c0-2.001,1.568-3.378,3.745-3.378c2.161,0,3.745,1.377,3.745,3.378
		c0,2-1.584,3.377-3.745,3.377C452.225,466.109,450.656,464.732,450.656,462.732z M460.404,468.095c0,1.504,1.057,2.993,2.881,3.633
		l-0.656,0.961c-1.408-0.528-2.4-1.521-2.881-2.737c-0.433,1.185-1.297,2.289-2.641,2.865c-1.377-0.545-2.226-1.601-2.658-2.817
		c-0.512,1.168-1.488,2.177-2.832,2.689l-0.673-0.961c1.825-0.688,2.881-2.241,2.881-3.633v-0.753h1.265v0.753
		c0,1.296,0.656,2.656,1.984,3.44c1.377-0.864,2.049-2.32,2.049-3.44v-0.753h1.281V468.095z M451.937,462.732
		c0,1.344,1.024,2.272,2.465,2.272c1.425,0,2.466-0.929,2.466-2.272c0-1.345-1.041-2.273-2.466-2.273
		C452.961,460.459,451.937,461.388,451.937,462.732z M463.653,461.948v1.088h-2.129v3.649h-1.313v-8.179h1.313v3.441H463.653z"/>
	<path fill="#32617C" d="M478.086,465.053v1.057h-12.998v-1.057H478.086z M476.869,464.045c-2.225-0.353-4.354-1.473-5.266-3.073
		c-0.896,1.601-3.042,2.721-5.283,3.073l-0.48-1.057c2.578-0.32,5.091-1.856,5.091-3.682v-0.641h1.345v0.641
		c0,1.776,2.529,3.361,5.074,3.682L476.869,464.045z M475.092,467.102h1.297v5.57h-9.652v-5.57h1.297v1.681h7.059V467.102z
		 M475.092,469.791h-7.059v1.824h7.059V469.791z"/>
	<path fill="#32617C" d="M482.033,468.03c2.16,0,4.385-0.192,6.771-0.672l0.144,1.12c-2.496,0.512-4.754,0.672-7.043,0.672h-1.184
		v-9.251h1.313V468.03z M491.589,458.507v14.342h-1.313v-14.342H491.589z"/>
	<path fill="#32617C" d="M496.465,468.19c2.545,0,4.385-0.112,6.467-0.48l0.144,1.089c-2.192,0.416-4.081,0.512-6.786,0.512h-1.137
		v-9.428h6.674v1.089h-5.361V468.19z M507.957,465.261h-2.369v7.636h-1.313v-14.39h1.313v5.666h2.369V465.261z"/>
</g>
<path fill="#9FC4DD" stroke="#62A8C4" stroke-width="2" stroke-linecap="round" stroke-miterlimit="10" d="M281.649,241.328
	c5.136-4.174,11.087-5.731,19.86-4.826c17.546,1.812,30.39,12.367,26.969,45.489c-2.773,26.856-11.128,46.44-41.745,43.279
	c-30.974-3.198-32.781-26.004-31.82-35.313c0.74-7.162,4.307-13.67,12.543-12.82c8.236,0.851,10.922,6.375,10.615,12.859
	c-0.498,10.081,1.843,17.199,10.437,18.086c10.563,1.091,13.834-7.8,15.627-25.167c2.145-20.769-0.82-28.856-11.384-29.947
	c-11.28-1.165-9.906,11.824-23.155,10.456c-7.162-0.739-9.472-6.406-8.936-11.598c0.167-1.612,0.53-3.383,0.968-5.871l6.875-43.804
	c0.679-4.816,3.252-8.712,8.803-8.139l43.506,4.493c8.057,0.832,12.65,3.658,11.837,11.537c-0.813,7.878-5.887,9.706-13.944,8.874
	l-32.765-3.383L281.649,241.328z"/>
<path fill="#9FC4DD" stroke="#62A8C4" stroke-width="2" stroke-linecap="round" stroke-miterlimit="10" d="M354.872,257.383
	c-0.18-20.879,3.06-44.278,36.179-44.278s36.358,23.399,36.178,44.278v43.559c0.18,20.698-3.06,44.098-36.178,44.098
	s-36.358-23.399-36.179-44.098V257.383z M378.991,304.181c0,16.56,2.34,23.579,12.06,23.579s12.059-7.02,12.059-23.579v-50.218
	c0-16.739-2.339-23.579-12.059-23.579s-12.06,6.84-12.06,23.579V304.181z"/>
<path fill="#9FC4DD" stroke="#62A8C4" stroke-width="2" stroke-linecap="round" stroke-miterlimit="10" d="M448.111,257.383
	c-0.18-20.879,3.06-44.278,36.178-44.278c33.119,0,36.359,23.399,36.18,44.278v43.559c0.18,20.698-3.061,44.098-36.18,44.098
	c-33.118,0-36.357-23.399-36.178-44.098V257.383z M472.23,304.181c0,16.56,2.34,23.579,12.059,23.579
	c9.721,0,12.061-7.02,12.061-23.579v-50.218c0-16.739-2.34-23.579-12.061-23.579c-9.719,0-12.059,6.84-12.059,23.579V304.181z"/>
<g>
	<linearGradient id="SVGID_1_" gradientUnits="userSpaceOnUse" x1="295.5" y1="124.6665" x2="295.5" y2="234.6665">
		<stop  offset="0" style="stop-color:#FFFF00"/>
		<stop  offset="0.8364" style="stop-color:#FFFF00;stop-opacity:0"/>
	</linearGradient>
	<polygon fill="url(#SVGID_1_)" points="348.322,234 242.678,234 286.243,124 304.757,124 	"/>
</g>
<g>
	<path fill="#487F3F" d="M309.845,62.084c0.047-2.685,1.035-9.024,5.705-15.331c-0.236-0.378-0.426-0.794-0.548-1.245
		c-0.701-2.574,0.875-5.25,3.526-5.972c2.65-0.721,5.365,0.786,6.066,3.359c0.703,2.582-0.875,5.25-3.525,5.972
		c-1.555,0.423-3.127,0.075-4.31-0.798c-1.538,2.691-3.314,8.928-3.506,18.098l-0.052,0.031c-0.866-1.467-1.989-2.831-3.419-4.037
		L309.845,62.084z"/>
	<path fill="#639A47" d="M332.915,110.289c0.149,1.188,0.263,4.714-2.916,6.498c-5.398,3.7-11.049,1.339-11.049,1.339l-0.052-0.121
		C324.202,115.769,328.904,113.159,332.915,110.289z"/>
	<path fill="#639A47" d="M312.604,120.396c-0.382,1.457-1.84,5.243-6.824,6.601c-5.473,1.489-10.833-1.36-12.042-2.058
		C300.528,123.9,306.857,122.353,312.604,120.396z"/>
	<path fill="#639A47" d="M288.158,125.672c0,0-4.339,4.521-10.203,4.449c-5.078-0.062-7.628-3.108-8.227-3.923
		C274.936,126.602,281.038,126.476,288.158,125.672z"/>
	<polygon fill="#9B5D88" points="333.637,100.489 335.776,103.247 333.723,104.917 331.959,101.497 	"/>
	<polygon fill="#006171" points="330.101,102.838 332.24,105.597 330.19,107.272 328.423,103.854 	"/>
	<polygon fill="#B81F38" points="326.373,105.523 328.518,108.281 326.469,109.956 324.705,106.538 	"/>
	<path fill="#487F3F" d="M266.469,113.482c1.297,2.713-0.382,6.788-2.379,7.613c-2.006,0.823-2.757-0.92-2.757-0.92
		c1.951,0.021,4.26-4.784,1.788-7.727C263.122,112.447,265.174,110.779,266.469,113.482z"/>
	<path fill="#487F3F" d="M255.776,106.934c1.297,2.71-0.375,6.782-2.381,7.603c-2.004,0.829-2.756-0.919-2.756-0.919
		c1.955,0.027,4.268-4.779,1.798-7.722C252.437,105.896,254.486,104.22,255.776,106.934z"/>
	<path fill="#F58426" d="M263.122,112.447c2.472,2.943,0.163,7.748-1.788,7.727c-1.96-0.024-4.732-2.051-3.177-5.538
		C259.711,111.146,263.122,112.447,263.122,112.447z"/>
	<path fill="#F58426" d="M252.437,105.896c2.471,2.942,0.157,7.749-1.798,7.722c-1.951-0.021-4.734-2.052-3.175-5.531
		C249.018,104.597,252.437,105.896,252.437,105.896z"/>
	<path fill="#7BD3F7" d="M265.002,74.358c5.122-4.217,10.464,1.787,9.044,7.268c-1.814,6.989-8.173,5.623-10.818,1.767
		C261.514,80.897,261.359,77.355,265.002,74.358z"/>
	<path fill="#7BD3F7" d="M308.609,62.762c4.662,0.743,6.324,3.873,6.11,6.888c-0.325,4.672-5.116,9.065-10.218,3.968
		C300.494,69.606,302.058,61.731,308.609,62.762z"/>
	<path fill="#7BD3F7" d="M288.897,73.698c4.082-1.111,8.287,1.293,9.398,5.374c1.11,4.081-1.295,8.286-5.376,9.397
		c-4.073,1.109-8.286-1.294-9.397-5.375C282.411,79.014,284.825,74.807,288.897,73.698z"/>
	<path fill="#487F3F" d="M258.254,97.632c-3.55-4.877,0.499-10.439,0.499-10.439l0.241-0.008c0.08,4.931,0.188,14.571,34.172,6.788
		c38.782-8.89,27.992-22.937,27.992-22.937c3.798,0.635,5.988,2.545,6.387,6.061c0.495,4.398-7.83,18.272-31.699,23.66
		C274.362,105.605,261.812,102.51,258.254,97.632z"/>
	<path fill="#5F9F44" d="M258.994,87.185l-0.241,0.008c0,0-0.097,0.136-0.239,0.361c0.138,0.405,0.313,0.809,0.535,1.203
		C259.008,88.201,259.001,87.67,258.994,87.185z"/>
	<path fill="#5F9F44" d="M321.508,71.103l-0.35-0.067c0,0,0.17,0.218,0.386,0.617C321.538,71.465,321.527,71.282,321.508,71.103z"/>
	<path fill="#A1CF6D" d="M255.776,106.934c-1.29-2.713-3.34-1.038-3.34-1.038s-3.418-1.299-4.973,2.19
		c-1.559,3.48,1.225,5.511,3.175,5.531c0,0,0.753,1.748,2.756,0.919C255.402,113.715,257.074,109.644,255.776,106.934z
		 M266.469,113.482c-1.295-2.703-3.348-1.035-3.348-1.035s-3.41-1.301-4.965,2.188c-1.555,3.487,1.217,5.514,3.177,5.538
		c0,0,0.751,1.743,2.757,0.92C266.088,120.27,267.767,116.195,266.469,113.482z M332.915,110.289
		c-4.012,2.871-8.713,5.48-14.018,7.716c-2.012,0.858-4.105,1.654-6.294,2.391c-5.747,1.958-12.077,3.505-18.865,4.544
		c-0.602,0.097-1.203,0.185-1.81,0.266c-1.286,0.176-2.545,0.334-3.771,0.467c-7.12,0.804-13.223,0.93-18.429,0.525
		c-21.318-1.661-27.468-12.252-26.717-22.193c0.955-12.594,15.997-22.001,16.46-22.287c-0.577,2.445-0.551,4.042-0.551,4.042
		c0.057,0.394,0.064,0.885,0.073,1.426l-0.241,0.007c0,0-4.05,5.562-0.499,10.439c3.558,4.877,16.108,7.974,37.593,3.125
		c23.868-5.389,32.193-19.262,31.698-23.661c-0.399-3.515-2.588-5.425-6.387-6.06c-1.197-1.428-2.732-3.14-4.654-4.854
		c0.579-0.058,24.966-2.438,30.586,11.152C351.784,88.742,346.031,100.924,332.915,110.289z M328.518,108.281l-2.146-2.756
		l-1.668,1.015l1.765,3.417L328.518,108.281z M332.24,105.597l-2.139-2.759l-1.678,1.017l1.767,3.418L332.24,105.597z
		 M331.959,101.497l1.766,3.42l2.053-1.67l-2.139-2.758L331.959,101.497z"/>
	<path fill="#C9DB44" d="M265.002,74.358c-3.644,2.998-3.488,6.539-1.773,9.034c2.645,3.856,9.003,5.222,10.818-1.767
		C275.467,76.145,270.125,70.141,265.002,74.358z M314.72,69.648c0.214-3.014-1.448-6.145-6.11-6.888
		c-6.551-1.031-8.116,6.845-4.107,10.855C309.605,78.714,314.395,74.321,314.72,69.648z M281.263,60.471
		c17.552-6.074,28.649-0.194,35.241,5.711c1.922,1.714,3.458,3.426,4.654,4.854c0,0,10.789,14.046-27.992,22.936
		c-33.983,7.783-34.092-1.856-34.172-6.787c-0.008-0.541-0.017-1.032-0.073-1.426c0,0-0.025-1.597,0.552-4.042l0.008-0.002
		C260.836,76.079,265.465,65.941,281.263,60.471z M298.295,79.072c-1.112-4.081-5.317-6.485-9.398-5.374
		c-4.073,1.108-6.486,5.316-5.375,9.396c1.112,4.082,5.324,6.484,9.397,5.375C297,87.358,299.405,83.153,298.295,79.072z"/>
</g>
<polygon fill-rule="evenodd" clip-rule="evenodd" fill="#E26892" points="589.352,509.485 606.738,520.802 587.604,513.759 "/>
<path fill-rule="evenodd" clip-rule="evenodd" fill="#E26892" d="M569.003,514.222c0.098-0.066,0.202-0.098,0.316-0.099
	c0.056-0.138,0.23-0.108,0.522,0.086l2.33,3.643l4.2-0.972c0.276-0.049,0.467-0.005,0.571,0.133
	c-0.017,0.13-0.036,0.247-0.061,0.353l-2.55,3.302l1.603,3.279c0.09,0.283,0.103,0.474,0.037,0.57
	c-0.122,0.04-0.296,0.077-0.522,0.109l-3.582-1.493l-2.792,3.399c-0.13,0.113-0.251,0.13-0.364,0.048l-0.134-0.012
	c-0.153-0.024-0.222-0.125-0.205-0.304l0.277-4.358l-3.703-1.566c-0.112-0.016-0.173-0.085-0.182-0.206
	c-0.008-0.187,0.102-0.36,0.328-0.522l3.569-1.238l-0.108-0.036L569.003,514.222z"/>
<polygon fill-rule="evenodd" clip-rule="evenodd" fill="#E26892" points="578.851,517.754 605.549,523.739 577.988,523.909 "/>
<polygon fill-rule="evenodd" clip-rule="evenodd" fill="#E26892" points="589.438,535.165 588.017,530.441 606.665,528.256 "/>
<path fill-rule="evenodd" clip-rule="evenodd" fill="#7080BD" d="M581.788,501.752c0.09-0.073,0.19,0.027,0.304,0.304l0.206,3.63
	l3.448,1.044c0.234,0.072,0.364,0.186,0.389,0.34c-0.064,0.081-0.129,0.154-0.194,0.219l-3.254,1.359l-0.194,3.061
	c-0.064,0.259-0.134,0.408-0.206,0.448c-0.114-0.016-0.247-0.068-0.4-0.157l-2.076-2.563l-3.425,1.312
	c-0.121,0.041-0.21,0-0.267-0.121l-0.098-0.073c-0.12-0.072-0.125-0.183-0.012-0.327l2.003-3.072l-2.063-2.695
	c-0.073-0.058-0.085-0.125-0.037-0.206c0.049-0.146,0.195-0.235,0.438-0.268l3.133,0.607l-0.049-0.073l2.052-2.805
	C581.582,501.683,581.683,501.695,581.788,501.752"/>
<path fill-rule="evenodd" clip-rule="evenodd" fill="#E31913" d="M579.59,530.175c0.001-0.098,0.13-0.114,0.39-0.049l2.72,1.869
	l2.658-1.857c0.171-0.137,0.323-0.178,0.462-0.121c0.016,0.098,0.027,0.19,0.035,0.279l-0.849,3.06l2.075,1.858
	c0.154,0.202,0.22,0.331,0.195,0.388c-0.065,0.064-0.179,0.138-0.341,0.219l-2.962,0.024l-0.972,3.205
	c-0.049,0.113-0.134,0.15-0.255,0.109l-0.098,0.048c-0.112,0.033-0.194-0.023-0.241-0.169l-1.069-3.181l-3.071-0.013
	c-0.081,0.016-0.139-0.017-0.171-0.098c-0.057-0.121-0.036-0.271,0.061-0.449l2.186-1.919l-0.072,0.001l-0.874-3.012
	C579.429,530.271,579.494,530.207,579.59,530.175"/>
<path fill-rule="evenodd" clip-rule="evenodd" fill="#F3C941" d="M569.695,507.919c0.105,0.073,0.21,0.163,0.315,0.268
	c0.316,0.331,0.466,0.725,0.449,1.178c-0.008,0.445-0.178,0.825-0.51,1.141c-0.332,0.316-0.729,0.47-1.189,0.462
	c-0.446-0.009-0.826-0.179-1.142-0.511c-0.21-0.226-0.348-0.477-0.413-0.752c-0.032-0.146-0.048-0.292-0.048-0.437
	c0.008-0.445,0.178-0.826,0.509-1.142c0.333-0.316,0.729-0.47,1.19-0.461C569.157,507.673,569.437,507.758,569.695,507.919
	 M573.97,533.514c0.518,0.534,0.756,1.169,0.716,1.906c-0.009,0.736-0.279,1.363-0.813,1.881c-0.26,0.243-0.539,0.426-0.838,0.547
	c-0.34,0.13-0.704,0.194-1.093,0.195c-0.721-0.024-1.34-0.305-1.857-0.839c-0.511-0.542-0.762-1.182-0.753-1.918
	c0.008-0.429,0.105-0.817,0.291-1.166c0.138-0.25,0.324-0.485,0.559-0.703c0.534-0.519,1.166-0.77,1.895-0.754
	C572.827,532.688,573.459,532.972,573.97,533.514"/>
</svg>
