<?xml version="1.0" encoding="utf-8"?>
<!-- Generator: Adobe Illustrator 15.1.0, SVG Export Plug-In . SVG Version: 6.00 Build 0)  -->
<!DOCTYPE svg PUBLIC "-//W3C//DTD SVG 1.1//EN" "http://www.w3.org/Graphics/SVG/1.1/DTD/svg11.dtd">
<svg version="1.1" id="Layer_1" xmlns="http://www.w3.org/2000/svg" xmlns:xlink="http://www.w3.org/1999/xlink" x="0px" y="0px"
	 width="800px" height="800px" viewBox="0 0 800 800" enable-background="new 0 0 800 800" xml:space="preserve">
<g enable-background="new    ">
	<path fill="#32617C" d="M306.3,378.212c-2.4-0.863-4.128-2.567-5.064-4.655c-0.96,2.327-2.784,4.225-5.353,5.111l-1.272-1.943
		c3.36-1.151,5.328-4.032,5.328-6.938v-0.144h-4.584v-2.018h11.593v2.018h-4.512v0.12c0,2.688,1.848,5.376,5.088,6.504
		L306.3,378.212z M310.115,379.269h2.473v8.616h-14.09v-8.616h2.448v2.352h9.169V379.269z M310.115,383.564h-9.169v2.328h9.169
		V383.564z M312.588,366.475v11.833h-2.496v-4.729h-3.816v-2.041h3.816v-5.063H312.588L312.588,366.475z"/>
	<path fill="#32617C" d="M336.349,376.268v2.017h-19.658v-2.017H330.9c0.552-2.712,0.576-4.752,0.576-6.576h-12.313V367.7h14.762
		v1.776c0,1.848,0,3.983-0.528,6.792H336.349z M321.683,385.725h12.865v1.991h-15.313v-7.271h2.448V385.725z"/>
	<path fill="#32617C" d="M344.555,376.748c-1.992,0.097-3.912,0.12-5.592,0.12l-0.336-1.969c2.688-0.023,5.977-0.048,9.217-0.265
		c0.359-2.111,0.456-3.743,0.504-4.943h-7.729v-2.018h10.178v0.816c0,1.176,0,3.192-0.433,5.952
		c0.744-0.071,1.512-0.168,2.256-0.264l0.192,1.752c-1.896,0.313-3.864,0.553-5.784,0.672v4.849h-2.473V376.748z M357.372,385.725
		v2.017h-15.648v-6.625h2.472v4.608H357.372z M354.396,378.188v-11.714h2.472v16.37h-2.472v-2.714h-4.513v-1.942H354.396z"/>
	<path fill="#32617C" d="M373.691,370.915h-12.793v-1.968h5.161v-2.496h2.472v2.496h5.16V370.915z M367.282,380.132
		c-3.096,0-5.257-1.632-5.257-4.104c0-2.448,2.161-4.104,5.257-4.104c3.12,0,5.256,1.656,5.256,4.104
		C372.539,378.5,370.403,380.132,367.282,380.132z M366.563,385.725h12.097v2.017h-14.593v-6.265h2.496V385.725z M367.282,378.212
		c1.729,0,2.904-0.814,2.904-2.184s-1.176-2.185-2.904-2.185c-1.704,0-2.88,0.815-2.88,2.185S365.578,378.212,367.282,378.212z
		 M380.867,373.388v2.04h-3.071v7.297h-2.473v-16.25h2.473v6.913H380.867z"/>
	<path fill="#32617C" d="M394.835,375.691c0,4.705-2.353,7.657-5.593,7.657c-3.216,0-5.567-2.952-5.567-7.657
		c0-4.656,2.352-7.632,5.567-7.632C392.483,368.06,394.835,371.035,394.835,375.691z M386.051,375.691
		c0,3.409,1.319,5.449,3.191,5.449c1.896,0,3.217-2.04,3.217-5.449c0-3.359-1.32-5.4-3.217-5.4
		C387.37,370.291,386.051,372.332,386.051,375.691z M400.787,366.451v21.746h-2.496v-21.746H400.787z"/>
	<path fill="#32617C" d="M421.907,373.388c-0.479,2.447-2.665,4.079-5.545,4.079c-3.24,0-5.641-2.063-5.641-5.063
		c0-2.952,2.399-5.017,5.641-5.017c2.855,0,5.04,1.585,5.521,3.961h4.032v-4.85h2.474v11.449h-2.474v-4.561L421.907,373.388
		L421.907,373.388z M420.538,379.196v8.688h-7.68v-8.688h2.304v2.448h3.098v-2.448H420.538z M416.363,375.428
		c1.896,0,3.288-1.2,3.288-3.024c0-1.8-1.392-2.976-3.288-2.976c-1.896,0-3.265,1.176-3.265,2.976
		C413.099,374.228,414.467,375.428,416.363,375.428z M418.26,383.469h-3.098v2.52h3.098V383.469z M426.827,380.756
		c0,2.306,1.199,4.514,3.816,5.474l-1.225,1.872c-1.921-0.744-3.169-2.137-3.841-3.792c-0.721,1.632-1.943,3.023-3.793,3.792
		l-1.248-1.872c2.617-1.08,3.842-3.336,3.842-5.474v-1.728h2.447L426.827,380.756L426.827,380.756z"/>
	<path fill="#32617C" d="M452.123,376.172v1.969H432.49v-1.969H452.123z M450.18,374.876c-3.528-0.479-6.457-2.111-7.873-4.368
		c-1.393,2.257-4.32,3.889-7.848,4.368l-0.912-1.92c4.344-0.553,7.487-2.903,7.487-5.425v-0.84h2.544v0.84
		c0,2.496,3.192,4.872,7.489,5.425L450.18,374.876z M447.131,379.484h2.473v8.399h-14.689v-8.399h2.449v2.208h9.769L447.131,379.484
		L447.131,379.484z M447.131,383.589h-9.769v2.328h9.769V383.589z"/>
	<path fill="#32617C" d="M458.314,380.564c3.072-0.024,6.313-0.288,9.721-0.984l0.265,2.064c-3.721,0.768-7.226,1.031-10.584,1.031
		h-1.85v-14.09h2.448V380.564L458.314,380.564z M472.5,366.475v21.675h-2.474v-21.675H472.5z"/>
	<path fill="#32617C" d="M480.011,380.78c3.505-0.024,6.145-0.168,9.169-0.696l0.264,2.04c-3.288,0.602-6.217,0.722-10.129,0.722
		h-1.775v-14.329h10.08v2.016h-7.607L480.011,380.78L480.011,380.78z M496.836,376.844h-3.386v11.328h-2.472v-21.722h2.472v8.354
		h3.386V376.844z"/>
</g>
<g enable-background="new    ">
	<path fill="#32617C" d="M328.106,425.014c-2.977,0.496-6.418,0.576-8.963,0.576l-0.128-1.072c0.912,0,1.953-0.017,3.041-0.032
		v-3.104h1.296v3.058c1.569-0.064,3.202-0.177,4.658-0.385L328.106,425.014z M325.353,423.046c0.336-1.649,0.384-2.883,0.384-3.795
		h-5.857v-1.071h7.139v0.752c0,0.943,0,2.369-0.368,4.258L325.353,423.046z M322.52,430.023h8.227v1.072h-9.54v-4.21h1.313V430.023
		L322.52,430.023z M332.348,421.732v1.088h-2.065v5.06h-1.313v-10.82h1.313v4.674L332.348,421.732L332.348,421.732z"/>
	<path fill="#32617C" d="M335.975,426.87c2.353,0,4.466-0.111,6.979-0.513l0.128,1.073c-2.593,0.432-4.77,0.528-7.234,0.528h-1.186
		v-5.508h5.282v-2.993h-5.33v-1.071h6.659v5.138h-5.298V426.87L335.975,426.87z M345.611,417.042v14.391h-1.313v-14.391H345.611z"/>
	<path fill="#32617C" d="M353.384,421.444c0,2.288,1.633,4.834,3.714,5.811l-0.752,1.057c-1.602-0.8-2.945-2.48-3.603-4.401
		c-0.655,2.098-2.049,3.921-3.666,4.754l-0.768-1.041c2.049-1.023,3.777-3.744,3.777-6.178v-1.825h-3.281v-1.089h7.763v1.089h-3.186
		L353.384,421.444L353.384,421.444z M361.964,423.957h-2.369v7.459h-1.313v-14.342h1.313v5.778h2.369V423.957z"/>
	<path fill="#32617C" d="M371.369,417.378h1.249v13.335h-1.249v-6.995h-1.809c-0.112,2.816-1.28,4.546-3.041,4.546
		c-1.873,0-3.073-1.921-3.073-5.026c0-3.057,1.201-4.979,3.073-4.979c1.729,0,2.881,1.682,3.041,4.387h1.809V417.378z
		 M368.377,423.236c0-2.305-0.736-3.761-1.857-3.761c-1.152,0-1.873,1.456-1.873,3.761c0,2.354,0.72,3.811,1.873,3.811
		C367.641,427.047,368.377,425.591,368.377,423.236z M375.468,417.059v14.356h-1.249v-14.356H375.468z"/>
	<path fill="#32617C" d="M385.946,417.442h1.249v13.253h-1.249v-6.706H383c-0.864,1.664-2.241,3.153-4.227,4.338l-0.769-0.944
		c3.072-1.84,4.609-4.417,4.85-7.428h-4.242v-1.072h5.538c0,1.408-0.208,2.771-0.688,4.051h2.48v-5.491H385.946z M390.188,417.059
		v14.356h-1.249v-14.356H390.188z"/>
	<path fill="#32617C" d="M409.308,424.405v1.058h-5.763v2.896h-1.313v-2.896h-5.97v-1.058H409.308z M399.239,430.023h8.611v1.072
		h-9.924v-4.099h1.313V430.023L399.239,430.023z M407.611,422.772h-9.651v-5.042h9.651V422.772z M406.314,418.787h-7.075v2.93h7.075
		V418.787z"/>
	<path fill="#32617C" d="M411.11,427.19c2.608,0,6.21-0.017,9.348-0.496l0.112,0.978c-3.232,0.606-6.707,0.624-9.3,0.624
		L411.11,427.19z M419.514,421.492c0,2.001-1.602,3.377-3.842,3.377c-2.226,0-3.843-1.376-3.843-3.377
		c0-2.017,1.617-3.378,3.843-3.378C417.912,418.114,419.514,419.476,419.514,421.492z M413.111,421.492
		c0,1.328,1.072,2.257,2.562,2.257c1.488,0,2.562-0.929,2.562-2.257c0-1.345-1.073-2.257-2.562-2.257
		C414.183,419.235,413.111,420.147,413.111,421.492z M422.715,417.059v14.39h-1.313v-14.39H422.715z"/>
	<path fill="#32617C" d="M430.584,419.363h3.537v1.057h-8.468v-1.057h3.617v-2.129h1.313V419.363z M433.448,424.918
		c0,1.952-1.456,3.298-3.505,3.298c-2.017,0-3.474-1.346-3.474-3.298c0-1.938,1.457-3.313,3.474-3.313
		C431.992,421.604,433.448,422.98,433.448,424.918z M432.2,424.918c0-1.297-0.943-2.226-2.257-2.226
		c-1.296,0-2.241,0.929-2.241,2.226c0,1.28,0.945,2.209,2.241,2.209C431.257,427.127,432.2,426.198,432.2,424.918z M439.148,424.069
		h-2.354v7.347h-1.313v-14.342h1.313v5.892h2.354V424.069z"/>
	<path fill="#32617C" d="M444.712,421.107c0,2.306,1.072,4.738,2.962,5.891l-0.753,1.024c-1.36-0.832-2.321-2.353-2.833-4.098
		c-0.513,1.904-1.554,3.537-2.979,4.418l-0.814-0.992c1.969-1.152,3.151-3.729,3.151-6.194v-2.737h1.266V421.107z M448.49,417.378
		h1.232v13.335h-1.232v-7.411h-2.369v-1.089h2.369V417.378z M452.651,417.059v14.356h-1.249v-14.356H452.651z"/>
	<path fill="#32617C" d="M468.202,428.486v1.089h-13.045v-1.089h3.201v-3.873c-1.201-0.624-1.921-1.665-1.921-2.961
		c0-2.241,2.177-3.682,5.218-3.682c3.059,0,5.22,1.439,5.22,3.682c0,1.296-0.705,2.32-1.89,2.944v3.89H468.202L468.202,428.486z
		 M457.702,421.652c0,1.602,1.648,2.656,3.953,2.656c2.306,0,3.972-1.056,3.972-2.656c0-1.6-1.666-2.657-3.972-2.657
		C459.351,418.995,457.702,420.052,457.702,421.652z M459.672,428.486h4.002v-3.377c-0.608,0.146-1.297,0.224-2.019,0.224
		c-0.704,0-1.393-0.078-1.983-0.224V428.486z"/>
</g>
<g>
	<g>
		<path fill="#F8D50D" d="M267.909,545.365c-1.047-5.099-2.522-10.068-4.464-14.831c-30.027-9.306-58-25.202-79.918-47.661
			c-11.903,1.303-23.636,5.243-34.362,11.528C184.949,520.397,225.452,536.247,267.909,545.365z"/>
		<path fill="#F58426" d="M269.632,566.071c0.236-7.023-0.343-13.981-1.723-20.706c-42.457-9.115-82.959-24.966-118.744-50.961
			c-10.632,6.229-20.247,14.82-28.059,25.465C164.963,549.63,216.247,562.068,269.632,566.071z"/>
		<path fill="#A87C4F" d="M265.693,589.688c2.362-7.819,3.667-15.763,3.934-23.617c-53.382-4.003-104.666-16.441-148.522-46.204
			c-0.817,1.114-1.613,2.244-2.399,3.396C161.476,558.22,212.314,580.774,265.693,589.688z"/>
		<path fill="#F58426" d="M253.331,615.672c0.962-1.431,1.913-2.891,2.805-4.393c4.175-6.961,7.333-14.22,9.558-21.591
			c-53.379-8.919-104.217-31.469-146.988-66.433c-0.897,1.32-1.772,2.675-2.606,4.061c-3.185,5.313-5.786,10.798-7.835,16.374
			C148.838,581.836,199.745,604.867,253.331,615.672z"/>
		<path fill="#F8D50D" d="M247.164,623.815c2.177-2.584,4.236-5.283,6.172-8.145c-53.588-10.805-104.492-33.844-145.071-71.979
			c-1.302,3.555-2.307,7.147-3.158,10.757C141.251,591.028,195.019,610.068,247.164,623.815z"/>
		<path fill="#F58426" d="M224.142,643.565c8.475-5.132,16.29-11.757,23.022-19.75c-52.146-13.747-105.913-32.784-142.061-69.362
			c-2.505,10.583-3.06,21.297-1.845,31.618C139.756,612.947,181.171,634.554,224.142,643.565z"/>
		<path fill="#A87C4F" d="M224.142,643.565c-42.971-9.012-84.386-30.621-120.883-57.497c1.459,12.45,5.561,24.316,12.086,34.677
			c32.643,15.705,68.976,19.761,104.856,25.046C221.522,645.073,222.846,644.351,224.142,643.565z"/>
		<path fill="#F8D50D" d="M115.345,620.75c6.218,9.862,14.638,18.366,25.146,24.663c24.677,14.797,54.67,13.881,79.711,0.382
			C184.321,640.509,147.985,636.452,115.345,620.75z"/>
		<path fill="#F58426" d="M263.443,530.534c-6.198-15.272-16.913-28.481-31.691-37.345c-14.894-8.923-31.722-12.129-48.229-10.313
			C205.444,505.332,233.415,521.229,263.443,530.534z"/>
	</g>
	<path fill="#006171" d="M294.603,611.349c5.971-13.632-4.142-32.588-24.858-51.305c-0.036,7.009-0.469,14.265-1.943,20.894
		c4.362,7.229,6.313,14.217,3.957,19.598c-7.786,17.739-52.939,15.07-100.861-5.948c-47.922-21.024-80.462-52.447-72.678-70.181
		c3.528-8.05,12.852-11.845,28.563-11.673c4.538-4.542,8.542-8.49,14.036-12.822c-33.786-5.479-59.217-0.532-66.026,15.008
		c-10.67,24.315,29.878,65.61,90.588,92.236C226.082,633.787,283.933,635.656,294.603,611.349z"/>
</g>
<g>
	<g>
		<path fill="#006171" d="M182.958,348.021c13.286-4.656,27.832,2.339,32.485,15.62c4.658,13.288-2.337,27.834-15.624,32.489
			c-13.283,4.654-27.83-2.338-32.485-15.624C162.678,367.221,169.67,352.676,182.958,348.021z"/>
		<g>
			<g>
				<rect x="211.076" y="415.977" fill="#52BAB7" width="13.34" height="71.238"/>
				<path fill="#006171" d="M230.121,411.715c0.006,6.849-5.547,12.41-12.4,12.41c-6.842,0.007-12.411-5.547-12.415-12.396
					s5.562-12.403,12.4-12.412C224.56,399.317,230.12,404.867,230.121,411.715z"/>
				<path fill="#006171" d="M230.144,447.841c0.002,6.854-5.548,12.403-12.4,12.409c-6.849,0-12.411-5.543-12.412-12.395
					c-0.008-6.859,5.554-12.408,12.397-12.416C224.576,435.436,230.138,440.99,230.144,447.841z"/>
				<polygon fill="#F58426" points="233.08,490.794 202.445,490.811 208.324,480.607 227.193,480.596 				"/>
				<polygon fill="#006171" points="193.631,499.887 241.903,499.861 238.959,490.787 196.569,490.813 				"/>
			</g>
			<g>
				<rect x="158.504" y="415.953" fill="#52BAB7" width="13.35" height="71.24"/>
				<path fill="#006171" d="M177.514,411.74c0.004,6.859-5.549,12.41-12.396,12.418c-6.856,0-12.407-5.551-12.412-12.402
					c-0.005-6.844,5.546-12.404,12.396-12.404C171.951,399.347,177.509,404.896,177.514,411.74z"/>
				<path fill="#006171" d="M161.025,436.169c6.464-2.267,13.543,1.135,15.811,7.6c2.267,6.467-1.139,13.545-7.604,15.813
					c-6.466,2.267-13.543-1.141-15.81-7.604C151.156,445.507,154.561,438.434,161.025,436.169z"/>
				<polygon fill="#F58426" points="180.471,490.818 149.836,490.841 155.717,480.641 174.584,480.621 				"/>
				<polygon fill="#006171" points="141.026,499.912 189.292,499.887 186.347,490.814 143.964,490.841 				"/>
			</g>
		</g>
		<g>
			<g>
				<rect x="254.773" y="294.771" fill="#F58426" width="14.151" height="21.223"/>
				<rect x="239.632" y="287.717" fill="#006171" width="21.691" height="35.849"/>
				<g>
					<rect x="275.221" y="226.273" fill="#52BAB7" width="7.423" height="7.434"/>
					<g>
						<rect x="272.99" y="240.802" fill="#52BAB7" width="11.796" height="59.188"/>
						<polygon fill="#006171" points="289.741,319.464 268.047,323.53 268.067,287.691 289.755,291.773 						"/>
						<path fill="#006171" d="M278.934,249.711c-4.946,0-8.96-4.005-8.954-8.954c0.001-4.955,4.017-8.969,8.961-8.966
							c4.958,0.005,8.961,4.023,8.958,8.975C287.893,245.708,283.889,249.714,278.934,249.711z"/>
					</g>
					<path fill="#006171" d="M294.047,213.613c0.004-6.139-3.681-11.417-8.951-13.769l-0.005,16.133l-12.269-0.008l0.008-16.133
						c-5.271,2.35-8.961,7.619-8.963,13.762c-0.003,8.337,6.743,15.101,15.076,15.101
						C287.286,228.707,294.043,221.952,294.047,213.613z"/>
				</g>
			</g>
			<g>
				<rect x="113.852" y="295.929" fill="#F58426" width="14.152" height="21.216"/>
				<rect x="121.383" y="288.395" fill="#006171" width="21.689" height="35.846"/>
				<g>
					<rect x="100.191" y="378.152" fill="#52BAB7" width="7.432" height="7.437"/>
					<g>
						<rect x="97.892" y="311.938" fill="#52BAB7" width="11.783" height="59.2"/>
						<polygon fill="#006171" points="92.968,320.144 114.663,324.209 114.642,288.367 92.959,292.446 						"/>
						<path fill="#006171" d="M94.878,371.153c0,4.954,4.022,8.958,8.973,8.955c4.933-0.003,8.957-4.012,8.95-8.967
							c-0.002-4.943-4.021-8.954-8.958-8.954C98.889,362.192,94.875,366.21,94.878,371.153z"/>
					</g>
					<path fill="#006171" d="M103.85,383.205c8.33-0.002,15.094,6.749,15.096,15.083c0.002,6.143-3.678,11.412-8.953,13.773
						l-0.009-16.132l-12.266,0.006l0.007,16.134c-5.271-2.354-8.958-7.619-8.96-13.764
						C88.758,389.968,95.514,383.212,103.85,383.205z"/>
				</g>
			</g>
		</g>
		<rect x="183.191" y="264.77" fill="#006171" width="16.319" height="20.255"/>
		<g>
			<rect x="165.393" y="207.256" fill="#006171" width="51.808" height="11.729"/>
			<g>
				<rect x="221.18" y="232.92" fill="#F58426" width="15.199" height="10.54"/>
				<rect x="224.493" y="226.261" fill="#006171" width="8.354" height="23.675"/>
			</g>
			<g>
				<rect x="146.262" y="232.865" fill="#F58426" width="15.202" height="10.533"/>
				<rect x="149.734" y="226.385" fill="#006171" width="8.356" height="23.677"/>
			</g>
			<g>
				<path fill="#52BAB7" d="M228.732,265.377c0.003,3.786-3.085,6.879-6.873,6.886l-61.058,0.032c-3.782,0-6.877-3.09-6.881-6.874
					l-0.022-43.547c-0.004-3.787,3.091-6.877,6.875-6.88l61.058-0.035c3.784,0,6.876,3.092,6.878,6.875L228.732,265.377z"/>
			</g>
			<g>
				<g>
					<path fill="#006171" d="M214.812,229.886c0.002,5.05-4.097,9.148-9.152,9.153c-5.047,0.005-9.145-4.095-9.151-9.142
						c-0.001-5.054,4.092-9.163,9.142-9.159C210.709,220.73,214.809,224.834,214.812,229.886z"/>
					<path fill="#F8D50D" d="M212.129,229.886c0.001,3.572-2.894,6.474-6.469,6.478c-3.573,0-6.467-2.898-6.47-6.468
						c0-3.576,2.891-6.476,6.46-6.479C209.229,223.414,212.132,226.314,212.129,229.886z"/>
				</g>
				<g>
					<path fill="#006171" d="M186.115,229.901c0.005,5.056-4.091,9.147-9.147,9.156c-5.058,0.005-9.152-4.09-9.162-9.146
						c0.002-5.052,4.096-9.16,9.151-9.163C182.019,220.749,186.113,224.847,186.115,229.901z"/>
					<path fill="#F8D50D" d="M183.436,229.905c0,3.569-2.896,6.472-6.475,6.476c-3.568,0.002-6.469-2.898-6.469-6.472
						c0-3.575,2.896-6.472,6.468-6.476C180.531,223.433,183.436,226.332,183.436,229.905z"/>
				</g>
			</g>
			<g>
				<rect x="164.197" y="253.772" fill="#006171" width="54.334" height="6.457"/>
				<g>
					<rect x="168.422" y="253.787" fill="#F8D50D" width="2.542" height="6.454"/>
					<rect x="173.916" y="253.833" fill="#F8D50D" width="2.549" height="6.459"/>
					<rect x="179.323" y="253.833" fill="#F8D50D" width="2.552" height="6.453"/>
					<rect x="184.697" y="253.879" fill="#F8D50D" width="2.542" height="6.457"/>
					<rect x="190.03" y="253.833" fill="#F8D50D" width="2.54" height="6.453"/>
					<rect x="195.397" y="253.854" fill="#F8D50D" width="2.551" height="6.459"/>
					<rect x="200.857" y="253.765" fill="#F8D50D" width="2.545" height="6.454"/>
					<rect x="206.345" y="253.778" fill="#F8D50D" width="2.542" height="6.456"/>
					<rect x="211.729" y="253.857" fill="#F8D50D" width="2.551" height="6.459"/>
				</g>
			</g>
			<rect x="188.609" y="237.419" fill="#006171" width="5.339" height="12.468"/>
		</g>
		<g>
			<path fill="#52BAB7" d="M141.145,281.745c-2.953,0.002-5.376,2.425-5.37,5.38l0.021,45c0.001,2.958,1.856,6.933,4.125,8.834
				l20.601,17.271c2.267,1.902,6.536,3.458,9.495,3.458l42.738-0.028c2.958,0.002,7.229-1.558,9.493-3.461l20.578-17.296
				c2.26-1.905,4.109-5.881,4.111-8.838l-0.025-44.999c0-2.955-2.426-5.376-5.384-5.37L141.145,281.745z"/>
		</g>
		<g>
			<path fill="#52BAB7" d="M162.639,377.92c-1.692,0-3.078,1.386-3.073,3.086l0.005,14.322c-0.004,1.697,1.102,3.92,2.447,4.945
				l16.438,12.535c1.349,1.021,3.835,1.864,5.527,1.866l14.863-0.01c1.698,0,4.181-0.842,5.529-1.869l16.427-12.556
				c1.348-1.025,2.449-3.25,2.443-4.943v-14.333c-0.004-1.69-1.392-3.073-3.083-3.073L162.639,377.92z"/>
		</g>
		<g>
			<rect x="149.833" y="298.489" fill="#F8D50D" width="83.072" height="30.332"/>
			<rect x="155.687" y="303.524" fill="#52BAB7" width="71.409" height="6.995"/>
			<g>
				<path fill="#52BAB7" d="M223.186,320.549c0.002,1.825-1.476,3.312-3.306,3.313c-1.834,0-3.311-1.479-3.312-3.308
					c-0.004-1.829,1.477-3.312,3.307-3.313C221.708,317.238,223.188,318.713,223.186,320.549z"/>
				<path fill="#52BAB7" d="M213.683,320.554c0.004,1.822-1.478,3.308-3.307,3.312c-1.83,0.001-3.313-1.479-3.314-3.307
					c0.001-1.833,1.475-3.311,3.31-3.313C212.201,317.243,213.679,318.717,213.683,320.554z"/>
				<path fill="#52BAB7" d="M199.771,317.433c1.728-0.607,3.618,0.304,4.224,2.031c0.604,1.727-0.303,3.619-2.03,4.223
					c-1.729,0.606-3.619-0.302-4.223-2.028C197.135,319.927,198.043,318.037,199.771,317.433z"/>
				<path fill="#52BAB7" d="M194.675,320.566c-0.002,1.822-1.476,3.306-3.314,3.31c-1.821,0-3.312-1.479-3.313-3.309
					c-0.003-1.831,1.487-3.313,3.313-3.311C193.194,317.26,194.67,318.731,194.675,320.566z"/>
				<path fill="#52BAB7" d="M185.162,320.57c0.005,1.827-1.471,3.309-3.3,3.312c-1.834,0.003-3.313-1.479-3.318-3.309
					c0.002-1.831,1.479-3.31,3.313-3.31C183.688,317.266,185.162,318.737,185.162,320.57z"/>
				<path fill="#52BAB7" d="M175.663,320.58c0.001,1.823-1.476,3.305-3.308,3.31c-1.831,0-3.313-1.484-3.313-3.312
					c0-1.833,1.477-3.306,3.313-3.31C174.183,317.271,175.666,318.743,175.663,320.58z"/>
				<path fill="#52BAB7" d="M166.156,320.584c-0.002,1.824-1.476,3.305-3.309,3.309c-1.828,0.002-3.313-1.48-3.313-3.311
					c-0.003-1.831,1.483-3.309,3.309-3.308C164.676,317.276,166.158,318.747,166.156,320.584z"/>
			</g>
		</g>
	</g>
	<g>
		<ellipse fill="#2A485E" cx="191.028" cy="186.993" rx="41.628" ry="23.489"/>
		<g>
			<rect x="159.877" y="199.344" fill="#243944" width="62.338" height="14.015"/>
			<polygon fill="#243944" points="159.877,213.358 173.252,218.875 210.886,218.875 222.216,213.358 			"/>
			<rect x="159.219" y="209.182" fill="#F9B513" width="63.617" height="4.176"/>
		</g>
		<g>
			<path fill="#F2C900" d="M205.162,170.341c-3.397,5.663-9.318,7.257-11.525,7.664l-0.385-3.504l0.525-1.843l-1.598,0.948h-3.124
				l-0.963,1.371h-1.873l-0.477,1.368h2.483l-0.468,1.724c-1.833-0.29-8.283-1.715-11.889-7.728c0,0-0.719,3.476,0,4.424
				c0,0-0.442,2.527,0.717,4.213c0,0,0.396,2.527,2.41,3.159c0,0,1.14,2.31,5.088,2.107l-1.583,1.523l3.869,7.621h8.13l4.026-7.621
				l-1.583-1.523c3.947,0.202,5.088-2.107,5.088-2.107c2.015-0.632,2.411-3.159,2.411-3.159c1.158-1.686,0.717-4.213,0.717-4.213
				C205.879,173.816,205.162,170.341,205.162,170.341z"/>
			<g>
				<path fill="#EA1C24" d="M192.269,184.405c0.102,0.051,0.153,0.188,0.294,0.168c0.154,0.021,0.226,0.156,0.331,0.241
					c0.074,0.079,0.15,0.152,0.228,0.227c0.101,0.12,0.221,0.228,0.228,0.398c0.071,0.095-0.028,0.279,0.167,0.307
					c0.018,0.025,0.029,0.053,0.035,0.084c0.023,0.093,0.097,0.158,0.133,0.244c0.014,0.096,0.053,0.183,0.093,0.27
					c0.014,0.053,0.014,0.104,0.003,0.157c-0.038,0.355,0.107,0.703,0.033,1.06c-0.017,0.2-0.187,0.354-0.163,0.566
					c-0.019,0.051-0.037,0.103-0.055,0.152c0.057,0.083,0.005,0.155-0.028,0.228c-0.053,0.102-0.09,0.209-0.153,0.305
					c-0.113,0.147-0.192,0.323-0.364,0.421c-0.056,0.011-0.107,0.005-0.148-0.041c-0.089-0.17-0.011-0.331,0.04-0.49
					c0.089-0.277,0.165-0.558,0.144-0.85c-0.076-1.001-1.104-1.557-1.996-1.082c-0.216,0.112-0.393,0.274-0.553,0.458
					c-0.607,0.685-1.275,0.895-1.915,0.604c-0.721-0.329-1.131-1.091-1.04-1.935c0.039-0.174,0.099-0.342,0.137-0.518
					c0.025-0.119,0.088-0.222,0.16-0.319c0.063-0.073,0.119-0.152,0.183-0.227c0.131-0.084,0.224-0.227,0.39-0.26
					c0.179-0.029,0.306-0.126,0.382-0.293c0.023-0.042,0.067-0.063,0.112-0.08c0.107-0.029,0.207-0.075,0.306-0.129
					c0.121-0.057,0.233-0.131,0.375-0.138c0.235,0.069,0.45-0.041,0.67-0.092c0.209-0.045,0.413-0.009,0.616,0.047
					c0.104,0.029,0.207,0.082,0.32,0.06c0.147-0.027,0.276,0.044,0.411,0.083c0.095,0.031,0.19,0.065,0.285,0.1
					c0.031,0.013,0.061,0.028,0.087,0.049C192.095,184.258,192.191,184.321,192.269,184.405z"/>
				<path fill="#1C4399" d="M187.658,185.888c-0.012,0.438,0.029,0.868,0.286,1.246c0.633,0.929,1.707,0.97,2.466,0.088
					c0.298-0.35,0.632-0.637,1.099-0.706c1.15-0.17,1.924,0.779,1.609,1.957c-0.064,0.24-0.221,0.459-0.181,0.725
					c0.033,0.162-0.104,0.231-0.182,0.332c-0.114,0.116-0.238,0.221-0.385,0.296c-0.115,0.083-0.25,0.122-0.38,0.176l0.003-0.002
					c-0.132,0.086-0.26,0.18-0.416,0.216c-0.166,0.049-0.334,0.093-0.482,0.19c-0.076,0.024-0.151,0.024-0.225,0.003
					c-0.307-0.133-0.627,0.037-0.935-0.048c-0.176-0.063-0.377-0.047-0.537-0.164c-0.35-0.188-0.749-0.293-1.048-0.576
					c-0.148-0.119-0.24-0.286-0.352-0.437c-0.052-0.037-0.103-0.076-0.153-0.114l-0.002-0.002c-0.185-0.368-0.371-0.736-0.555-1.105
					c-0.048-0.043-0.062-0.1-0.062-0.162c-0.055-0.637-0.053-1.267,0.207-1.869c0.044-0.066,0.09-0.139,0.179-0.139
					C187.67,185.794,187.68,185.841,187.658,185.888z"/>
			</g>
			<circle fill="none" stroke="#D47307" stroke-miterlimit="10" cx="190.517" cy="187.183" r="3.569"/>
		</g>
	</g>
</g>
<g>
	<path fill="#CB415F" d="M481.377,62.22c-1.06,1.237-1.981,2.587-2.733,4.069c-6.608,13.017,1.891,30.607,18.969,39.279
		c17.09,8.678,36.304,5.16,42.911-7.855c0.753-1.482,1.288-3.027,1.667-4.611L481.377,62.22z"/>
	<path fill="#639A47" d="M516.788,117.341c4.537,0.145,8.569-3.283,9.035-7.646c0.019-0.199,0.025-0.379,0.031-0.566
		c-2.317-0.709-5.22-1.154-8.384-1.263c-2.905-0.085-5.644,0.131-7.964,0.594c-0.035,0.233-0.087,0.47-0.109,0.708
		C508.948,113.539,512.255,117.188,516.788,117.341z"/>
	<path fill="#639A47" d="M494.158,112.448c4.297,2.094,9.487,0.319,11.599-3.966c0.095-0.186,0.171-0.367,0.247-0.563
		c-1.963-1.711-4.567-3.431-7.567-4.903c-2.76-1.348-5.47-2.285-7.87-2.813c-0.146,0.219-0.265,0.45-0.383,0.685
		C488.072,105.168,489.859,110.352,494.158,112.448z"/>
	<path fill="#639A47" d="M477.055,96.975c-2.754-3.531-2.377-8.736,0.829-11.635c0.142-0.126,0.277-0.239,0.424-0.357
		c1.913,1.438,3.958,3.48,5.884,5.945c1.757,2.248,3.167,4.554,4.156,6.663c-0.161,0.176-0.323,0.351-0.507,0.505
		C484.625,100.989,479.806,100.484,477.055,96.975z"/>
	<path fill="#9B5D88" d="M552.021,101.11c-4.828,9.509-27.319,7.806-50.207-3.817c-22.895-11.625-37.519-28.769-32.688-38.278
		c4.832-9.52,27.304-7.825,50.196,3.8C542.211,74.439,556.855,91.592,552.021,101.11z"/>
	<path fill="#F2768A" d="M524.961,51.721c-12.95-6.576-29.332-0.32-36.604,14.002c-0.312,0.61-0.599,1.24-0.861,1.87
		c0.171,5.416,4.683,13.041,19.005,20.313c12.008,6.098,25.613,6.376,27.452,3.917c0.464-0.739,0.897-1.499,1.298-2.288
		C542.525,75.213,537.899,58.291,524.961,51.721z"/>
	<path fill="#CAACD2" d="M526.094,54.649l3.59-12.886l-8.631,10.211c-0.149,0.061-0.271,0.008-0.326,0.116
		c-0.315,0.622,0.299,1.592,1.878,2.395c1.577,0.801,3.119,0.958,3.435,0.336C526.067,54.766,526.08,54.706,526.094,54.649z"/>
	<path fill="#F58426" d="M533.577,44.425c-1.282,2.526-4.249,3.589-6.626,2.382c-2.365-1.202-3.261-4.226-1.979-6.75
		c1.277-2.517,4.246-3.578,6.613-2.376C533.964,38.887,534.856,41.91,533.577,44.425z"/>
	<path fill="#7BD3F7" d="M496.885,55.392c1.968-1.345,4.156-2.734,4.156-2.734s13.497,18.154,37.18,18.169
		c0,0,1.399,6.984-0.305,9.885c0,0-10.394,0.928-22.532-3.908c-8.227-3.275-18.421-10.224-22.336-17.988
		C493.047,58.815,494.925,56.748,496.885,55.392z"/>
</g>
<g>
	<path fill="#F8D50D" d="M585.814,414.154c0,0-30.798,1.063-47.839,31.894c0,0,10.24,28.794,56.833,10.354L585.814,414.154z"/>
	<path fill="#006171" d="M588.041,405.608c0,0,66.268-20.072,97.021-19.193c30.75,0.852,50.179,10.816,50.179,10.816
		s-19.317,43.002-140.174,62.219C595.068,459.447,579.238,437.735,588.041,405.608z"/>
	
		<linearGradient id="SVGID_1_" gradientUnits="userSpaceOnUse" x1="421.8381" y1="484.9919" x2="466.134" y2="484.9919" gradientTransform="matrix(0.9693 -0.2458 0.2458 0.9693 165.5443 41.4387)">
		<stop  offset="0.0112" style="stop-color:#E8423F"/>
		<stop  offset="0.9944" style="stop-color:#D44541"/>
	</linearGradient>
	<path fill="url(#SVGID_1_)" d="M694.855,386.907c0,0-6.479,23.673,7.097,39.479c0,0,20.502-8.144,34.176-27.072
		c0,0,2.793-2.616-3.384-4.72C726.598,392.468,713.868,387.661,694.855,386.907z"/>
	<path opacity="0.12" fill="#006171" enable-background="new    " d="M588.041,405.608c0,0-11.18,28.345,7.026,53.839l21.662-3.653
		c0,0-18.585-20.554-6.476-56.297L588.041,405.608z"/>
	
		<linearGradient id="SVGID_2_" gradientUnits="userSpaceOnUse" x1="704.9045" y1="493.0105" x2="706.8678" y2="475.7346" gradientTransform="matrix(0.985 0.1725 -0.1725 0.985 -7.6698 -135.408)">
		<stop  offset="0.0112" style="stop-color:#E8423F"/>
		<stop  offset="0.9944" style="stop-color:#D44541"/>
	</linearGradient>
	<polygon fill="url(#SVGID_2_)" points="595.068,459.447 590.744,473.424 611.913,469.056 616.73,455.794 	"/>
	
		<linearGradient id="SVGID_3_" gradientUnits="userSpaceOnUse" x1="686.3616" y1="419.2615" x2="691.3839" y2="428.23" gradientTransform="matrix(0.985 0.1725 -0.1725 0.985 -7.6698 -135.408)">
		<stop  offset="0.0112" style="stop-color:#E8423F"/>
		<stop  offset="0.9944" style="stop-color:#D44541"/>
	</linearGradient>
	<polygon fill="url(#SVGID_3_)" points="610.255,399.497 604.664,389.675 582.68,394.675 588.041,405.608 	"/>
	<path fill="#52BAB7" d="M653.997,388.861c-13.615,2.08-43.742,10.636-43.742,10.636s-13.768,32.204,6.476,56.296
		c0,0,24.413-4.036,40.346-9.772c22.145-7.978,41.766-17.706,41.766-17.706s-13.798-7.09-7.478-41.009
		C691.36,387.305,671.74,386.156,653.997,388.861z"/>
	
		<linearGradient id="SVGID_4_" gradientUnits="userSpaceOnUse" x1="695.9963" y1="455.4187" x2="667.0722" y2="472.8473" gradientTransform="matrix(0.985 0.1725 -0.1725 0.985 -7.6698 -135.408)">
		<stop  offset="0.0112" style="stop-color:#E8423F"/>
		<stop  offset="0.9944" style="stop-color:#E8423F"/>
	</linearGradient>
	<polygon fill="url(#SVGID_4_)" points="601.383,430.725 581.211,436.32 582.424,441.891 601.88,436.176 	"/>
	<path fill="#006171" d="M650.988,389.439c0,0,29.439,28.954,47.701-2.351C698.689,387.09,669.951,383.703,650.988,389.439z"/>
	<path fill="#7BD3F7" d="M696.261,386.883c0,0-22.556-3.551-42.687,1.804C653.573,388.686,678.946,411.128,696.261,386.883z"/>
</g>
<polygon fill="#F8D50D" points="60.682,743.201 48.287,734.704 34.263,740.1 38.513,725.687 29.05,714.015 44.071,713.603 
	52.247,700.995 57.28,715.155 71.796,719.034 59.886,728.196 "/>
<polygon fill="#006171" points="419.711,136.725 424.712,129.162 421.317,120.754 430.057,123.172 437.003,117.346 437.403,126.405 
	445.092,131.211 436.6,134.39 434.404,143.188 428.756,136.094 "/>
<polygon fill="#006171" points="747.147,215.776 752.147,208.212 748.754,199.805 757.491,202.223 764.438,196.397 764.84,205.455 
	772.526,210.262 764.036,213.441 761.842,222.238 756.192,215.146 "/>
<polygon fill="#7BD3F7" points="682.384,525.022 669.849,521.746 660.045,530.216 659.284,517.281 648.2,510.573 660.267,505.856 
	663.222,493.24 671.437,503.26 684.347,502.171 677.358,513.079 "/>
<polygon fill="#F17881" points="281.019,451.574 290.042,456.582 299.283,451.99 297.308,462.119 304.531,469.489 294.289,470.74 
	289.511,479.887 285.156,470.532 274.979,468.815 282.532,461.782 "/>
<polygon fill="#F17881" points="705.515,670.385 714.538,675.394 723.781,670.802 721.804,680.93 729.029,688.3 718.784,689.552 
	714.008,698.697 709.651,689.343 699.476,687.625 707.029,680.593 "/>
<polygon fill="#7BD3F7" points="62.846,94.613 52.067,90.47 42.543,97.001 43.153,85.469 33.998,78.43 45.154,75.446 49.019,64.565 
	55.305,74.252 66.848,74.566 59.577,83.537 "/>
</svg>
